<?xml version="1.0" encoding="utf-8" ?>
<svg baseProfile="full" height="200mm" version="1.1" viewBox="0,0,200,200" width="200mm" xmlns="http://www.w3.org/2000/svg" xmlns:ev="http://www.w3.org/2001/xml-events" xmlns:xlink="http://www.w3.org/1999/xlink"><defs /><rect fill="#1a1a1a" height="200" width="200" x="0" y="0" /><text alignment-baseline="middle" fill="#e1ed5e" style="dominant-baseline: central; font-size:9.0px; font-family:Arial;" text-anchor="middle" x="100.0" y="100.0">2023</text><line stroke="#e1ed5e" stroke-width="0.3" x1="100.0" x2="100.0" y1="15.0" y2="10.0" /><path d="M 100.0 14.0 a86.0,86.0 0 0,1 42.46469731375804,11.215312516191453" fill="none" id="id13" stroke="none" /><text fill="#e1ed5e" style="font-size:6.75px; font-family:Arial;" text-anchor="middle"><textPath startOffset="22.20632615414155" xlink:href="#id13">January</textPath></text><line stroke="#e1ed5e" stroke-width="0.3" x1="143.23703022742887" x2="145.7803849466894" y1="26.81831364943548" y2="22.513508569990506" /><path d="M 143.74570117128098 25.957352633546492 a86.0,86.0 0 0,1 28.547481713284135,27.462654790039103" fill="none" id="id14" stroke="none" /><text fill="#e1ed5e" style="font-size:6.75px; font-family:Arial;" text-anchor="middle"><textPath startOffset="19.985693538727396" xlink:href="#id14">February</textPath></text><path d="M 111.60114157652 82.49532879139004 l 2.9501858358791813 -4.451461325658114 a26.340328117265084,26.340328117265084 0 0,0 0.37578279293923766,0.25373021925081546 l -3.026373323224961 4.400019194108628" fill="#ff0000" stroke="none" /><path d="M 113.6212207817346 84.01681056812373 l 12.37231420135375 -14.517717960794068 a40.07454569540733,40.07454569540733 0 0,0 0.5211717593252079,0.45195501397502286 l -12.620379759325722 14.302597953399372" fill="#ffca12" stroke="none" /><path d="M 115.68641384162765 86.03803664274999 l 23.339589242570423 -20.7738042020331 a52.245597562477776,52.245597562477776 0 0,0 0.5921370148622406,0.6769149692205425 l -23.69371812101051 20.368973676609613" fill="#99ff23" stroke="none" /><path d="M 117.2510076193507 88.02491185347247 l 17.044447618479406 -11.831700915325692 a41.748550338970844,41.748550338970844 0 0,0 0.40471349727675104,0.5938671182310625 l -17.24558558142489 11.536555773824222" fill="#ffe015" stroke="none" /><line stroke="#e1ed5e" stroke-width="0.3" x1="172.23445277983987" x2="176.4835382374775" y1="55.19839476539836" y2="52.563006222186495" /><path d="M 173.08426987136738 54.67131705675599 a86.0,86.0 0 0,1 12.851231095245387,41.99856678651699" fill="none" id="id15" stroke="none" /><text fill="#e1ed5e" style="font-size:6.75px; font-family:Arial;" text-anchor="middle"><textPath startOffset="22.20632615414155" xlink:href="#id15">March</textPath></text><path d="M 118.56541770881063 90.18545643968196 l 13.043164581041939 -6.895223633146821 a35.75358435226008,35.75358435226008 0 0,0 0.2829480214314141,0.546565516859104 l -13.15992203563347 6.669685394027372" fill="#ff8d0d" stroke="none" /><path d="M 118.89224826269711 90.83032412892265 l 13.188213912861121 -6.401125224367794 a35.6595835667123,35.6595835667123 0 0,0 0.26327267823970973,0.5545194032766596 l -13.296444784942588 6.173163405450595" fill="#ff8c0c" stroke="none" /><path d="M 120.83666639777658 97.38593545837742 l 30.859620470378417 -3.8714945135443743 a52.10152159210547,52.10152159210547 0 0,0 0.1039788751381443,0.8908275033546837 l -30.92168969852015 3.339723271864838" fill="#9bff22" stroke="none" /><line stroke="#e1ed5e" stroke-width="0.3" x1="184.98032266829074" x2="189.97916517819016" y1="98.17113171792111" y2="98.06355123074" /><path d="M 185.9800911702706 98.14961562048488 a86.0,86.0 0 0,1 -9.607161424134198,41.387399972396054" fill="none" id="id16" stroke="none" /><text fill="#e1ed5e" style="font-size:6.75px; font-family:Arial;" text-anchor="middle"><textPath startOffset="21.466115282336823" xlink:href="#id16">April</textPath></text><path d="M 120.99980553446 99.90962569577887 l 62.99941660337998 -0.27112291266339017 a84.0,84.0 0 0,0 -0.006222810841987947,1.4459620871852612 l -62.994749495248485 -0.8133486527255557" fill="#4dd2ff" stroke="none" /><line stroke="#e1ed5e" stroke-width="0.3" x1="174.80103733775053" x2="179.2010983576182" y1="140.37084112569926" y2="142.7455964860345" /><path d="M 175.68104954172406 140.8457921977663 a86.0,86.0 0 0,1 -30.038265399797805,32.042727171017184" fill="none" id="id17" stroke="none" /><text fill="#e1ed5e" style="font-size:6.75px; font-family:Arial;" text-anchor="middle"><textPath startOffset="22.206326154141568" xlink:href="#id17">May</textPath></text><path d="M 116.0416608686014 113.55231037782055 l 5.329983338710523 4.502874677783597 a27.97743525622105,27.97743525622105 0 0,0 -0.31395677052986043,0.3652026528788502 l -5.251684058609884 -4.593954429823975" fill="#ff1a02" stroke="none" /><line stroke="#e1ed5e" stroke-width="0.3" x1="143.8653032363475" x2="146.44561519142675" y1="172.8068346515853" y2="177.08958963109032" /><path d="M 144.38136562736335 173.6633856474863 a86.0,86.0 0 0,1 -40.68145358897372,12.25698825130547" fill="none" id="id18" stroke="none" /><text fill="#e1ed5e" style="font-size:6.75px; font-family:Arial;" text-anchor="middle"><textPath startOffset="21.466115282336833" xlink:href="#id18">June</textPath></text><path d="M 103.7750983002368 120.6578951692458 l 2.8677456638510974 15.692727601869064 a36.95260683333605,36.95260683333605 0 0,0 -0.6267004252610281,0.10895990202259756 l -2.597196267118019 -15.739766082412668" fill="#ff9e0e" stroke="none" /><line stroke="#e1ed5e" stroke-width="0.3" x1="102.19456741930631" x2="102.32365962044197" y1="184.97166512339345" y2="189.96999836594603" /><path d="M 102.22038585953345 185.97133177190398 a86.0,86.0 0 0,1 -42.740103519485714,-10.115201625700543" fill="none" id="id19" stroke="none" /><text fill="#e1ed5e" style="font-size:6.75px; font-family:Arial;" text-anchor="middle"><textPath startOffset="22.20632615414155" xlink:href="#id19">July</textPath></text><path d="M 95.51606077576429 120.51570834832081 l -3.1720207237975404 14.51318779980834 a35.8557845832762,35.8557845832762 0 0,0 -0.6018305520626139,-0.13697467425739232 l 3.421371425253017 -14.456436391973261" fill="#ff8f0d" stroke="none" /><path d="M 92.7421414339146 119.70592522655815 l -4.915175731620679 13.345270448684392 a35.22164532750138,35.22164532750138 0 0,0 -0.5671184361451262,-0.21443566615450366 l 5.144164388526089 -13.258686532423255" fill="#ff860c" stroke="none" /><path d="M 90.42595943632237 118.69057910512821 l -8.832256184292168 17.242457016064623 a40.37294694298736,40.37294694298736 0 0,0 -0.615801057031141,-0.32215800848335774 l 9.127748143849805 -17.087869588636547" fill="#ffce13" stroke="none" /><line stroke="#e1ed5e" stroke-width="0.3" x1="58.666819895761336" x2="56.23545636021788" y1="174.27360380694188" y2="178.64263932499728" /><path d="M 58.180547188652646 175.14741091055294 a86.0,86.0 0 0,1 -31.652253787137756,-30.449443065178592" fill="none" id="id20" stroke="none" /><text fill="#e1ed5e" style="font-size:6.75px; font-family:Arial;" text-anchor="middle"><textPath startOffset="22.20632615414155" xlink:href="#id20">August</textPath></text><path d="M 88.24862548938628 117.40417183066458 l -8.296341002898405 12.287153664434713 a35.8257687561153,35.8257687561153 0 0,0 -0.508117075100062,-0.34948755751267635 l 8.506614962621358 -12.142525317556935" fill="#ff8e0d" stroke="none" /><path d="M 86.24171649860922 115.8653595955263 l -10.597644714632207 12.220670132743837 a37.175748885010215,37.175748885010215 0 0,0 -0.47984623912887686,-0.42340851526567047 l 10.806433306667671 -12.036438475705879" fill="#ffa10e" stroke="none" /><path d="M 84.67929136418377 114.36230785411682 l -11.257101222955345 10.552903077281583 a36.4300386033983,36.4300386033983 0 0,0 -0.42493661013127004,-0.4611847642977158 l 11.437084241082344 -10.357567058182523" fill="#ff970d" stroke="none" /><path d="M 84.43433777217949 114.09645910891817 l -6.066648055115741 5.49403263320787 a29.18465718276536,29.18465718276536 0 0,0 -0.33401305142498633,-0.3752672041240223 l 6.160319956189065 -5.388791259342984" fill="#ff2c04" stroke="none" /><path d="M 83.06392112726016 112.41649034213515 l -9.08961245981985 6.663944244069662 a32.27072347091266,32.27072347091266 0 0,0 -0.3245823291293109,-0.4508164663878561 l 9.202974581324769 -6.506494172230668" fill="#ff5b08" stroke="none" /><path d="M 82.85270091963577 112.12312394758628 l -7.233999986907837 5.114431028881222 a29.859354409874662,29.859354409874662 0 0,0 -0.2931038205131381,-0.42223791416509715 l 7.320964714583109 -4.989151852529112" fill="#ff3605" stroke="none" /><line stroke="#e1ed5e" stroke-width="0.3" x1="26.63291911575756" x2="22.317208475507996" y1="142.92168965132927" y2="145.44649492493687" /><path d="M 25.769776987707644 143.4266507060508 a86.0,86.0 0 0,1 -11.730757126820373,-40.83630448921669" fill="none" id="id21" stroke="none" /><text fill="#e1ed5e" style="font-size:6.75px; font-family:Arial;" text-anchor="middle"><textPath startOffset="21.46611528233685" xlink:href="#id21">September</textPath></text><path d="M 81.69416730710424 110.29060199501025 l -14.19546226770352 7.979962167403297 a37.2846843748039,37.2846843748039 0 0,0 -0.309682310529535,-0.5621633469188079 l 14.330720987684574 -7.734428302086666" fill="#ffa30f" stroke="none" /><path d="M 80.45479744820244 107.68017299344265 l -14.328263823440698 5.630207441855851 a36.39475170415062,36.39475170415062 0 0,0 -0.22409759943431232,-0.5850481174419055 l 14.42305570246852 -5.382735757580787" fill="#ff960d" stroke="none" /><path d="M 79.76711848015287 105.62410040840567 l -14.353315893293551 3.9897673348337706 a35.8975139039633,35.8975139039633 0 0,0 -0.16036261113707997,-0.5967689323967021 l 14.419866580772407 -3.7421074692615295" fill="#ff8f0d" stroke="none" /><path d="M 79.18660465613746 102.79330883721812 l -14.697510746152314 1.9725127003096976 a35.82928280417316,35.82928280417316 0 0,0 -0.07677445956931664,-0.6119679818320173 l 14.72928671496848 -1.7192269641902715" fill="#ff8e0d" stroke="none" /><path d="M 79.0235259727143 100.99374915477108 l -13.664570877345106 0.6473516827474318 a34.679896251914485,34.679896251914485 0 0,0 -0.023116408593735052,-0.5965317903516917 l 13.673689418790042 -0.4120426453817434" fill="#ff7e0b" stroke="none" /><line stroke="#e1ed5e" stroke-width="0.3" x1="15.007084014347285" x2="10.007500721073583" y1="101.09737516637583" y2="101.16192664675087" /><path d="M 14.007167355692545 101.11028546245083 a86.0,86.0 0 0,1 10.666146001902534,-42.60595125391555" fill="none" id="id22" stroke="none" /><text fill="#e1ed5e" style="font-size:6.75px; font-family:Arial;" text-anchor="middle"><textPath startOffset="22.20632615414155" xlink:href="#id22">October</textPath></text><path d="M 79.00175016825051 100.2711162175752 l -7.350336643035817 0.09490293165057859 a28.350949281037853,28.350949281037853 0 0,0 -0.0021002689829368185,-0.4880285451915956 l 7.350881209308257 0.03163509174469238" fill="#ff1f03" stroke="none" /><path d="M 79.00019446554 99.90962569577889 l -7.34385317827456 -0.03160484606390869 a28.34392118492213,28.34392118492213 0 0,0 0.006299089448860142,-0.487871419654334 l 7.342221081707984 0.1580125237787147" fill="#ff1f03" stroke="none" /><path d="M 79.00486145842228 99.54816195383935 l -7.353053554942955 -0.1582456502966409 a28.35475616643387,28.35475616643387 0 0,0 0.014701678513134012,-0.48787713644846575 l 7.349240181974175 0.28479293417010104" fill="#ff1f03" stroke="none" /><path d="M 79.01574976396665 99.18683210126434 l -9.555431432476624 -0.3702858101700005 a30.56260327745408,30.56260327745408 0 0,0 0.02489599357468014,-0.5255150760083757 l 9.547641830668445 0.5347119928013853" fill="#ff4106" stroke="none" /><path d="M 79.08570108090925 98.10471618934814 l -8.826553236474732 -0.7998749333011143 a29.862722039263446,29.862722039263446 0 0,0 0.050799155533102276,-0.5115405636807218 l 8.8114769552594 0.9516910276862662" fill="#ff3605" stroke="none" /><path d="M 79.54389044137918 95.25157060432595 l -14.70907013998484 -3.414382428661788 a36.10015734196661,36.10015734196661 0 0,0 0.14571948800107132,-0.6041013537803105 l 14.648117851722954 3.667069014101495" fill="#ff920d" stroke="none" /><path d="M 80.2630227832202 92.82701384747504 l -29.203430984925337 -10.613368185022653 a52.07223785828997,52.07223785828997 0 0,0 0.3134139015114137,-0.8397934364622672 l 29.0164124949123 11.114484758514262" fill="#9bff22" stroke="none" /><path d="M 81.10775173730289 90.83032412892265 l -6.591406639961351 -3.1992519673930975 a28.32679020064006,28.32679020064006 0 0,0 0.21668643861439107,-0.43682663786089815 l 6.535360188393547 3.312238193752957" fill="#ff1f03" stroke="none" /><path d="M 81.26839172434947 90.50648371742162 l -27.540195901809497 -13.957867064681976 a51.87530474838068,51.87530474838068 0 0,0 0.4105326810059626,-0.7930184697756257 l 27.29585378764342 14.429858256717937" fill="#9eff22" stroke="none" /><line stroke="#e1ed5e" stroke-width="0.3" x1="26.266209847984243" x2="21.928928074336255" y1="57.711370442889674" y2="55.22380399835377" /><path d="M 25.398753493254645 57.213857153982495 a86.0,86.0 0 0,1 29.58750427330803,-30.492523968695096" fill="none" id="id23" stroke="none" /><text fill="#e1ed5e" style="font-size:6.75px; font-family:Arial;" text-anchor="middle"><textPath startOffset="21.46611528233685" xlink:href="#id23">November</textPath></text><path d="M 82.34701348167596 88.62581576622439 l -12.368533107304314 -7.969301631653232 a35.71361205560191,35.71361205560191 0 0,0 0.33741432358825524,-0.5139051634910626 l 12.229522148358138 8.181024859121962" fill="#ff8d0d" stroke="none" /><path d="M 85.57189188830299 84.74124197986013 l -10.15731460750301 -10.74208791135062 a35.78389301675912,35.78389301675912 0 0,0 0.4512044170460056,-0.4193453316104699 l 9.970902306662147 10.915337829035737" fill="#ff8e0d" stroke="none" /><path d="M 87.51073957382395 83.11751280151077 l -9.06928722034314 -12.259502978732016 a36.2495043844257,36.2495043844257 0 0,0 0.5048255874799724,-0.3667772585294917 l 8.856916316509388 12.413799472078175" fill="#ff940d" stroke="none" /><line stroke="#e1ed5e" stroke-width="0.3" x1="56.762969772571076" x2="54.21961505331055" y1="26.818313649435495" y2="22.513508569990535" /><path d="M 56.25429882871897 25.957352633546506 a86.0,86.0 0 0,1 42.265352541879196,-11.944610805530505" fill="none" id="id24" stroke="none" /><text fill="#e1ed5e" style="font-size:6.75px; font-family:Arial;" text-anchor="middle"><textPath startOffset="22.20632615414155" xlink:href="#id24">December</textPath></text><path d="M 89.63071344664047 81.73862282372117 l -7.535254764002596 -13.270356514568617 a36.260485784606516,36.260485784606516 0 0,0 0.545419713233463,-0.30352547990103024 l 7.305710961697088 13.39809739202983" fill="#ff950d" stroke="none" /><path d="M 92.23578459929587 80.48803036053334 l -5.427045327984724 -13.638511840107366 a35.67861799369238,35.67861799369238 0 0,0 0.5725854720676097,-0.22215426751319678 l 5.191476690917439 13.729908811511114" fill="#ff8c0c" stroke="none" /></svg>