<?xml version="1.0" encoding="utf-8" ?>
<svg baseProfile="full" height="200mm" version="1.1" viewBox="0,0,200,200" width="200mm" xmlns="http://www.w3.org/2000/svg" xmlns:ev="http://www.w3.org/2001/xml-events" xmlns:xlink="http://www.w3.org/1999/xlink"><defs /><rect fill="#1a1a1a" height="200" width="200" x="0" y="0" /><text alignment-baseline="middle" fill="#e1ed5e" style="dominant-baseline: central; font-size:9.0px; font-family:Arial;" text-anchor="middle" x="100.0" y="100.0">2025</text><line stroke="#e1ed5e" stroke-width="0.3" x1="100.0" x2="100.0" y1="15.0" y2="10.0" /><path d="M 100.0 14.0 a86.0,86.0 0 0,1 42.46469731375804,11.215312516191453" fill="none" id="id37" stroke="none" /><text fill="#e1ed5e" style="font-size:6.75px; font-family:Arial;" text-anchor="middle"><textPath startOffset="22.20632615414155" xlink:href="#id37">January</textPath></text><path d="M 101.08401301168833 79.027996857942 l 0.7841439609382003 -15.170546326753831 a36.190798451814835,36.190798451814835 0 0,0 0.621857788771972,0.037512160038683885 l -1.0451637985497841 15.154800897334843" fill="#ff7b0b" stroke="none" /><path d="M 103.59715602781102 79.31037775812273 l 4.384381032951884 -25.2174736472097 a46.59577649124605,46.59577649124605 0 0,0 0.7890326407755167,0.14419067173200942 l -4.8178087948303014 25.138267494126953" fill="#f0ff19" stroke="none" /><path d="M 106.74666289553966 80.11325718540242 l 4.721309685434939 -13.916727857321384 a35.69578440916057,35.69578440916057 0 0,0 0.580172076091625,0.20241064537103134 l -4.960163765589837 13.833396358778145" fill="#ff730a" stroke="none" /><path d="M 107.4271985657038 80.35727306442388 l 5.276108509155177 -13.95373475086081 a35.91790985687205,35.91790985687205 0 0,0 0.5764257285614419,0.22364422737084125 l -5.515517402716286 13.860847819599423" fill="#ff770a" stroke="none" /><path d="M 108.09893153111575 80.62456947434976 l 5.675208305689088 -13.577050728606858 a35.71544412514031,35.71544412514031 0 0,0 0.5651820085960281,0.2419814404354063 l -5.908074072075431 13.47734976020866" fill="#ff740a" stroke="none" /><path d="M 109.73455568895987 81.39251694778311 l 8.563070195551088 -16.368202990442352 a39.472797306046026,39.472797306046026 0 0,0 0.5993379499246053,0.3201455764620899 l -8.843553192004006 16.218378687478506" fill="#ffab0f" stroke="none" /><line stroke="#e1ed5e" stroke-width="0.3" x1="143.23703022742887" x2="145.7803849466894" y1="26.81831364943548" y2="22.513508569990506" /><path d="M 143.74570117128098 25.957352633546492 a86.0,86.0 0 0,1 28.547481713284135,27.462654790039103" fill="none" id="id38" stroke="none" /><text fill="#e1ed5e" style="font-size:6.75px; font-family:Arial;" text-anchor="middle"><textPath startOffset="19.985693538727396" xlink:href="#id38">February</textPath></text><path d="M 113.06298171725822 83.55741782278167 l 9.14913101229468 -11.516156247929487 a35.70810841022249,35.70810841022249 0 0,0 0.47797275799067873,0.38648739618452504 l -9.346007168849848 11.356962754480833" fill="#ff730a" stroke="none" /><path d="M 114.94478906791727 85.2469230424477 l 10.448120094607518 -10.31409136100807 a35.68140640792164,35.68140640792164 0 0,0 0.42772786258127415,0.4408111607305932 l -10.6241122208919 10.13271600472736" fill="#ff730a" stroke="none" /><path d="M 116.60985879189232 87.15038557335679 l 11.616488225798296 -8.98667451441609 a35.68683483696083,35.68683483696083 0 0,0 0.3716937807662671,0.4891054460331628 l -11.769457946788677 8.785384292501895" fill="#ff730a" stroke="none" /><line stroke="#e1ed5e" stroke-width="0.3" x1="172.23445277983987" x2="176.4835382374775" y1="55.19839476539836" y2="52.563006222186495" /><path d="M 173.08426987136738 54.67131705675599 a86.0,86.0 0 0,1 12.851231095245387,41.99856678651699" fill="none" id="id39" stroke="none" /><text fill="#e1ed5e" style="font-size:6.75px; font-family:Arial;" text-anchor="middle"><textPath startOffset="22.20632615414155" xlink:href="#id39">March</textPath></text><path d="M 118.03404312379186 89.2402003453031 l 26.770982354298454 -15.972591654261912 a52.173854114753865,52.173854114753865 0 0,0 0.4535158244878488,0.7752055533641733 l -27.04195785325663 15.509406688543843" fill="#a8ff21" stroke="none" /><path d="M 119.04729006885535 91.15688171328212 l 13.34844180197911 -6.1973041504357465 a35.71691126812387,35.71691126812387 0 0,0 0.2540963708896872,0.55986767150511 l -13.453140489832144 5.966614470088573" fill="#ff740a" stroke="none" /><path d="M 120.08093135843002 93.85539295169968 l 29.82804370208048 -9.12714675915027 a52.19322040213691,52.19322040213691 0 0,0 0.2554835841947076,0.8613636382115294 l -29.98073318338689 8.61235373419221" fill="#a8ff21" stroke="none" /><path d="M 120.67395015179393 96.31383870115 l 30.822724617677622 -5.49568581604301 a52.30883126924169,52.30883126924169 0 0,0 0.1504206164953455,0.8877909933784108 l -30.91275709569319 4.964309034348761" fill="#a6ff21" stroke="none" /><path d="M 120.96714384426684 98.82574320788733 l 31.212971013467776 -1.7480703851136274 a52.261882693767674,52.261882693767674 0 0,0 0.04257201141974478,0.8986278756043414 l -31.238436633121015 1.2105314028862864" fill="#a7ff21" stroke="none" /><line stroke="#e1ed5e" stroke-width="0.3" x1="184.98032266829074" x2="189.97916517819016" y1="98.17113171792111" y2="98.06355123074" /><path d="M 185.9800911702706 98.14961562048488 a86.0,86.0 0 0,1 -9.607161424134198,41.387399972396054" fill="none" id="id40" stroke="none" /><text fill="#e1ed5e" style="font-size:6.75px; font-family:Arial;" text-anchor="middle"><textPath startOffset="21.466115282336823" xlink:href="#id40">April</textPath></text><path d="M 120.9904718944345 100.63252640178507 l 17.89791565534749 0.5393353825423666 a38.90603997149551,38.90603997149551 0 0,0 -0.02593340851460821,0.6692260412517488 l -17.885980113981677 -0.8473386708081216" fill="#ffa30f" stroke="none" /><path d="M 120.95626037817324 101.35467743843564 l 7.370068358454672 0.47642399668433866 a28.3854510649595,28.3854510649595 0 0,0 -0.03571625242863195,0.4873198876940124 l -7.360775547361702 -0.6032170208751214" fill="#ff0100" stroke="none" /><path d="M 120.13307415673323 105.97154293290107 l 16.887352877631365 5.00885021069177 a38.614518660661474,38.614518660661474 0 0,0 -0.19449439366001572,0.6356189318512351 l -16.798631711465216 -5.298796115095062" fill="#ff9f0e" stroke="none" /><path d="M 119.26925614724726 108.34839909993367 l 16.16292852657849 7.002583645807021 a38.61466537495983,38.61466537495983 0 0,0 -0.2694915938485232,0.6076324004254138 l -16.039995847998693 -7.279764382725122" fill="#ff9f0e" stroke="none" /><line stroke="#e1ed5e" stroke-width="0.3" x1="174.80103733775053" x2="179.2010983576182" y1="140.37084112569926" y2="142.7455964860345" /><path d="M 175.68104954172406 140.8457921977663 a86.0,86.0 0 0,1 -30.038265399797805,32.042727171017184" fill="none" id="id41" stroke="none" /><text fill="#e1ed5e" style="font-size:6.75px; font-family:Arial;" text-anchor="middle"><textPath startOffset="22.206326154141568" xlink:href="#id41">May</textPath></text><path d="M 118.48025628344425 109.97397251340804 l 12.917492823751395 6.971695434855185 a35.678765550551226,35.678765550551226 0 0,0 -0.2963437330316635,0.5379499543084422 l -12.795572681268222 -7.193015907561433" fill="#ff730a" stroke="none" /><path d="M 118.12598468904814 110.60418214915192 l 12.757999097470764 7.463768099177422 a35.78087870220723,35.78087870220723 0 0,0 -0.3155858580938465,0.5289400506299289 l -12.62763236367869 -7.682270243693455" fill="#ff750a" stroke="none" /><path d="M 116.71984013943494 112.70617746262583 l 11.689317821035946 8.883251598847943 a35.681699836518355,35.681699836518355 0 0,0 -0.37583565494804866,0.4858182471764834 l -11.534675348869829 -9.083147840137679" fill="#ff730a" stroke="none" /><path d="M 116.498646956653 112.99209946851258 l 17.316421281709946 13.636067752811865 a43.040889042072074,43.040889042072074 0 0,0 -0.4633701934117625,0.5781255627054961 l -17.07913317624333 -13.932121149095613" fill="#ffde14" stroke="none" /><path d="M 116.0416608686014 113.55231037782055 l 8.193460800140505 6.9219967147760295 a31.725988924234876,31.725988924234876 0 0,0 -0.3560222348224028,0.4141342912324047 l -8.073096055747325 -7.062008105169962" fill="#ff3605" stroke="none" /><path d="M 115.07121518719521 114.62390073753431 l 10.61779299411348 10.302656346485334 a35.79466984625273,35.79466984625273 0 0,0 -0.43287580859513386,0.43850090870343694 l -10.438876560462809 -10.483897749169435" fill="#ff750a" stroke="none" /><path d="M 113.75828350139079 115.86535959552629 l 5.7713815103236135 6.655266481098434 a29.809166616209367,29.809166616209367 0 0,0 -0.39054908812315037,0.3328344056800699 l -5.655966945623415 -6.753625277001451" fill="#ff1802" stroke="none" /><path d="M 112.34349029814194 116.9893568818739 l 8.635723197551505 11.8860532793034 a35.6919698374033,35.6919698374033 0 0,0 -0.5001510161137943,0.3568444701640891 l -8.429844853588826 -12.03294201131171" fill="#ff730a" stroke="none" /><path d="M 111.1453310114006 117.79835938074945 l 8.573790755126758 13.691779002256528 a37.15471139201595,37.15471139201595 0 0,0 -0.5449725680596627,0.3347666622396411 l -8.336838987134787 -13.837334131324548" fill="#ff890c" stroke="none" /><line stroke="#e1ed5e" stroke-width="0.3" x1="143.8653032363475" x2="146.44561519142675" y1="172.8068346515853" y2="177.08958963109032" /><path d="M 144.38136562736335 173.6633856474863 a86.0,86.0 0 0,1 -40.68145358897372,12.25698825130547" fill="none" id="id42" stroke="none" /><text fill="#e1ed5e" style="font-size:6.75px; font-family:Arial;" text-anchor="middle"><textPath startOffset="21.466115282336833" xlink:href="#id42">June</textPath></text><path d="M 109.57404056367764 118.69057910512821 l 6.698769381972433 13.077433525377977 a35.6932902660885,35.6932902660885 0 0,0 -0.549245108163403,0.27540289937453866 l -6.472670366126269 -13.190804265661816" fill="#ff730a" stroke="none" /><path d="M 108.59647513512805 119.15986991738527 l 12.735618074533962 28.38521391499805 a52.11135382365408,52.11135382365408 0 0,0 -0.821571041266975,0.36015260074413186 l -12.245126358609232 -28.60023106903664" fill="#a9ff21" stroke="none" /><path d="M 104.13013068566511 120.58985236759428 l 2.889541019407201 14.405167179382161 a35.69211655170166,35.69211655170166 0 0,0 -0.6034217752540664,0.11564721938337112 l -2.6411516295814303 -14.452771597114001" fill="#ff730a" stroke="none" /><path d="M 103.06178313531738 120.77559828337769 l 2.1422913117331994 14.536425909840172 a35.69343698038686,35.69343698038686 0 0,0 -0.6086094888072004,0.08434772948638598 l -1.8917532317391685 -14.571148204819162" fill="#ff730a" stroke="none" /><path d="M 102.34483914955558 120.86867818915974 l 1.3123598478193002 11.67978423496821 a32.75328244132592,32.75328244132592 0 0,0 -0.5608101295271842,0.05813026293976839 l -1.1111171216865132 -11.700643866363736" fill="#ff4606" stroke="none" /><path d="M 101.26447882468166 120.96189622390904 l 0.8891217341321079 14.739414498294494 a35.7662072723716,35.7662072723716 0 0,0 -0.6148584558534631,0.0317811590040759 l -0.6352752098651652 -14.752535464060772" fill="#ff740a" stroke="none" /><line stroke="#e1ed5e" stroke-width="0.3" x1="102.19456741930631" x2="102.32365962044197" y1="184.97166512339345" y2="189.96999836594603" /><path d="M 102.22038585953345 185.97133177190398 a86.0,86.0 0 0,1 -42.740103519485714,-10.115201625700543" fill="none" id="id43" stroke="none" /><text fill="#e1ed5e" style="font-size:6.75px; font-family:Arial;" text-anchor="middle"><textPath startOffset="22.20632615414155" xlink:href="#id43">July</textPath></text><path d="M 98.73552117531835 120.96189622390904 l -0.8834237081945028 14.644955480038433 a35.67157654993177,35.67157654993177 0 0,0 -0.6125951850300215,-0.042248150595755436 l 1.1353816540034545 -14.627578984926393" fill="#ff730a" stroke="none" /><path d="M 96.58105272829116 120.7198165907248 l -2.8698452596424087 17.39209841450152 a38.627282804618474,38.627282804618474 0 0,0 -0.655102214290708,-0.11389791710157482 l 3.1687964454051665 -17.340121918878936" fill="#ff9f0e" stroke="none" /><path d="M 93.76903079525671 120.05430185196036 l -2.2661895375974694 7.2937046464838815 a28.63765294383404,28.63765294383404 0 0,0 -0.4694920302502693,-0.15031652201648096 l 2.391402912938679 -7.253615277807694" fill="#ff0500" stroke="none" /><path d="M 91.40352486487194 119.15986991738527 l -3.0089244510084776 6.706306964930642 a28.35038634765234,28.35038634765234 0 0,0 -0.44352424988391487,-0.20360022963096716 l 3.123916696659812 -6.6535196649656" fill="#ff0000" stroke="none" /><line stroke="#e1ed5e" stroke-width="0.3" x1="58.666819895761336" x2="56.23545636021788" y1="174.27360380694188" y2="178.64263932499728" /><path d="M 58.180547188652646 175.14741091055294 a86.0,86.0 0 0,1 -31.652253787137756,-30.449443065178592" fill="none" id="id44" stroke="none" /><text fill="#e1ed5e" style="font-size:6.75px; font-family:Arial;" text-anchor="middle"><textPath startOffset="22.20632615414155" xlink:href="#id44">August</textPath></text><path d="M 89.4739219176387 118.17145234162733 l -3.6872625560629904 6.3654207468632995 a28.35625491958659,28.35625491958659 0 0,0 -0.4202560756326118,-0.24829469709599863 l 3.796286502723984 -6.301007477473552" fill="#ff0000" stroke="none" /><path d="M 87.07902340077011 116.55440617244103 l -13.55997526031344 17.373093776894528 a43.03854161329837,43.03854161329837 0 0,0 -0.5800827013341091,-0.46085278092903403 l 13.857015454364907 -17.137107081960362" fill="#ffde14" stroke="none" /><path d="M 85.70375840098266 115.38237550388516 l -5.5722601836665815 5.995603666658733 a29.18519070529988,29.18519070529988 0 0,0 -0.36504303641678465,-0.34517097576957567 l 5.674639054474183 -5.898798054143226" fill="#ff0e01" stroke="none" /><path d="M 85.44109423537348 115.13401014063109 l -5.385770531177772 5.598518676588702 a28.76852209796789,28.76852209796789 0 0,0 -0.35392138352800095,-0.3463865643590934 l 5.481341867081567 -5.504982009307039" fill="#ff0701" stroke="none" /><path d="M 83.50135304334701 112.99209946851258 l -5.819783735029852 4.582873333152311 a28.40760492401131,28.40760492401131 0 0,0 -0.2992175499216063,-0.3867790182053121 l 5.8978081021695274 -4.482016320833747" fill="#ff0100" stroke="none" /><path d="M 82.05923443525364 110.91462005526583 l -6.396917448957834 3.8916914235517 a28.48771093091387,28.48771093091387 0 0,0 -0.25126042247551306,-0.42112692054145934 l 6.462958747131578 -3.7810024091241297" fill="#ff0200" stroke="none" /><line stroke="#e1ed5e" stroke-width="0.3" x1="26.63291911575756" x2="22.317208475507996" y1="142.92168965132927" y2="145.44649492493687" /><path d="M 25.769776987707644 143.4266507060508 a86.0,86.0 0 0,1 -11.730757126820373,-40.83630448921669" fill="none" id="id45" stroke="none" /><text fill="#e1ed5e" style="font-size:6.75px; font-family:Arial;" text-anchor="middle"><textPath startOffset="21.46611528233685" xlink:href="#id45">September</textPath></text><path d="M 80.87730276802145 108.67885076344099 l -13.373098211649255 6.069390850870831 a35.68595455117069,35.68595455117069 0 0,0 -0.24905213282611532,-0.5615468116800193 l 13.47559142920665 -5.838295702698116" fill="#ff730a" stroke="none" /><path d="M 79.97269907076064 106.31721596034903 l -14.018448368913042 4.421842268627144 a35.699305552321114,35.699305552321114 0 0,0 -0.1798109889313726,-0.5876327156219204 l 14.092486130350544 -4.179882580453176" fill="#ff730a" stroke="none" /><path d="M 79.35854240842038 103.8639653848113 l -7.382799178872108 1.3820187040382361 a28.511038504352523,28.511038504352523 0 0,0 -0.08614889646216875,-0.48316876194392494 l 7.405494517673465 -1.2547311913610975" fill="#ff0300" stroke="none" /><path d="M 79.0095281055655 100.63252640178507 l -15.304303880535528 0.4611795444173506 a36.311250890765386,36.311250890765386 0 0,0 -0.013448887297968589,-0.6249169463486841 l 15.309974830518504 -0.1976727822785376" fill="#ff7d0b" stroke="none" /><line stroke="#e1ed5e" stroke-width="0.3" x1="15.007084014347285" x2="10.007500721073583" y1="101.09737516637583" y2="101.16192664675087" /><path d="M 14.007167355692545 101.11028546245083 a86.0,86.0 0 0,1 10.666146001902534,-42.60595125391555" fill="none" id="id46" stroke="none" /><text fill="#e1ed5e" style="font-size:6.75px; font-family:Arial;" text-anchor="middle"><textPath startOffset="22.20632615414155" xlink:href="#id46">October</textPath></text><path d="M 79.00175016825051 100.2711162175752 l -18.027190589383054 0.2327557660882277 a39.0286931249214,39.0286931249214 0 0,0 -0.002891287794361683,-0.6718334591788793 l 18.02852617446692 0.07758717129432695" fill="#ffa50f" stroke="none" /><path d="M 79.01574976396665 99.18683210126434 l -14.958033084650541 -0.579643885097079 a35.96925986129677,35.96925986129677 0 0,0 0.029300202416115664,-0.6184809637573842 l 14.945839274000926 0.8370359554774723" fill="#ff770b" stroke="none" /><path d="M 79.32604984820605 96.31383870115002 l -7.2405959938340185 -1.2909968601604287 a28.35478777660303,28.35478777660303 0 0,0 0.08980943726905975,-0.4797656050439682 l 7.217300832655098 1.4154405426669694" fill="#ff0000" stroke="none" /><path d="M 80.38941819471856 92.48833698450439 l -13.715798180696527 -5.253717352444537 a35.687568408452606,35.687568408452606 0 0,0 0.22467270155408695,-0.5717675192321141 l 13.62333192926075 5.489033876572414" fill="#ff730a" stroke="none" /><path d="M 81.10775173730289 90.83032412892265 l -13.219989375964069 -6.416547988945936 a35.69490412337042,35.69490412337042 0 0,0 0.2730489969527332,-0.5504501161810663 l 13.107580366057922 6.643157693625964" fill="#ff730a" stroke="none" /><line stroke="#e1ed5e" stroke-width="0.3" x1="26.266209847984243" x2="21.928928074336255" y1="57.711370442889674" y2="55.22380399835377" /><path d="M 25.398753493254645 57.213857153982495 a86.0,86.0 0 0,1 29.58750427330803,-30.492523968695096" fill="none" id="id47" stroke="none" /><text fill="#e1ed5e" style="font-size:6.75px; font-family:Arial;" text-anchor="middle"><textPath startOffset="21.46611528233685" xlink:href="#id47">November</textPath></text><path d="M 85.05521093208273 85.24692304244772 l -44.83436720375183 -44.259230872656865 a84.0,84.0 0 0,0 1.0246567993307472,-1.0202565973995625 l 44.06587460425377 45.02442332070654" fill="#4dd2ff" stroke="none" /><path d="M 88.70189139769569 82.29822771554957 l -7.894883786457179 -12.369631052365811 a35.67436412160053,35.67436412160053 0 0,0 0.5204734246741544,-0.3259204107826331 l 7.680791209410782 12.503695804471374" fill="#ff730a" stroke="none" /><line stroke="#e1ed5e" stroke-width="0.3" x1="56.762969772571076" x2="54.21961505331055" y1="26.818313649435495" y2="22.513508569990535" /><path d="M 56.25429882871897 25.957352633546506 a86.0,86.0 0 0,1 42.265352541879196,-11.944610805530505" fill="none" id="id48" stroke="none" /><text fill="#e1ed5e" style="font-size:6.75px; font-family:Arial;" text-anchor="middle"><textPath startOffset="22.20632615414155" xlink:href="#id48">December</textPath></text></svg>