<?xml version="1.0" encoding="utf-8" ?>
<svg baseProfile="full" height="200mm" version="1.1" viewBox="0,0,200,200" width="200mm" xmlns="http://www.w3.org/2000/svg" xmlns:ev="http://www.w3.org/2001/xml-events" xmlns:xlink="http://www.w3.org/1999/xlink"><defs /><rect fill="#1a1a1a" height="200" width="200" x="0" y="0" /><text alignment-baseline="middle" fill="#e1ed5e" style="dominant-baseline: central; font-size:9.0px; font-family:Arial;" text-anchor="middle" x="100.0" y="100.0">2022</text><line stroke="#e1ed5e" stroke-width="0.3" x1="100.0" x2="100.0" y1="15.0" y2="10.0" /><path d="M 100.0 14.0 a86.0,86.0 0 0,1 42.46469731375804,11.215312516191453" fill="none" id="id1" stroke="none" /><text fill="#e1ed5e" style="font-size:6.75px; font-family:Arial;" text-anchor="middle"><textPath startOffset="22.20632615414155" xlink:href="#id1">January</textPath></text><path d="M 107.4271985657038 80.35727306442388 l 19.54860378365781 -51.70023161455273 a76.27261400448542,76.27261400448542 0 0,0 1.2240549985235119,0.4749143225917393 l -20.43564194718099 51.35607458807044" fill="red" stroke="none" /><line stroke="#e1ed5e" stroke-width="0.3" x1="143.23703022742887" x2="145.7803849466894" y1="26.81831364943548" y2="22.513508569990506" /><path d="M 143.74570117128098 25.957352633546492 a86.0,86.0 0 0,1 28.547481713284135,27.462654790039103" fill="none" id="id2" stroke="none" /><text fill="#e1ed5e" style="font-size:6.75px; font-family:Arial;" text-anchor="middle"><textPath startOffset="19.985693538727396" xlink:href="#id2">February</textPath></text><path d="M 110.68208982089419 81.91981866633111 l 9.272185283523905 -15.693819664161456 a39.22825816097682,39.22825816097682 0 0,0 0.5784074668021887,0.34848402690299995 l -9.540954816543731 15.53188902779984" fill="red" stroke="none" /><path d="M 117.45458315368197 88.32363383020206 l 14.61986258037197 -9.78005990389637 a38.58948417642661,38.58948417642661 0 0,0 0.36458492859072167,0.5552878589778814 l -14.786044144320616 9.526953980940815" fill="red" stroke="none" /><line stroke="#e1ed5e" stroke-width="0.3" x1="172.23445277983987" x2="176.4835382374775" y1="55.19839476539836" y2="52.563006222186495" /><path d="M 173.08426987136738 54.67131705675599 a86.0,86.0 0 0,1 12.851231095245387,41.99856678651699" fill="none" id="id3" stroke="none" /><text fill="#e1ed5e" style="font-size:6.75px; font-family:Arial;" text-anchor="middle"><textPath startOffset="22.20632615414155" xlink:href="#id3">March</textPath></text><path d="M 118.73160827565052 90.50648371742162 l 15.60018250809721 -7.906453331310239 a38.489359581360574,38.489359581360574 0 0,0 0.29442524878958953,0.5935433354876045 l -15.73396776984021 7.636750407323684" fill="red" stroke="none" /><path d="M 119.61058180528143 92.48833698450437 l 16.98443511648047 -6.505740338065443 a39.18778968352853,39.18778968352853 0 0,0 0.2358646096553025,0.6319998893700809 l -17.093904314637395 6.212417311666028" fill="red" stroke="none" /><path d="M 119.85752413597 93.16781622104841 l 3.403769981475844 -1.1711017897038365 a24.599601295788688,24.599601295788688 0 0,0 0.13431699317669538,0.40159071340873614 l -3.4234242684243097 1.1123379733727865" fill="red" stroke="none" /><path d="M 120.37134235888165 94.90015583598534 l 17.247025843270798 -4.317690142548027 a38.779267381011714,38.779267381011714 0 0,0 0.15653380494406235,0.6489336791960085 l -17.31879244847568 4.020171231692613" fill="red" stroke="none" /><path d="M 120.45610955862082 95.25157060432595 l 17.640951961085904 -4.094953374181175 a39.10999252429604,39.10999252429604 0 0,0 0.1465798064747832,0.6570885310147313 l -17.708826154562725 3.79068667361648" fill="red" stroke="none" /><path d="M 120.87857604477298 97.74499172005257 l 18.526592920599793 -2.000980351609137 a39.634338400199354,39.634338400199354 0 0,0 0.0674215471113495,0.6789257784234546 l -18.55829159339337 1.6817790424812475" fill="red" stroke="none" /><line stroke="#e1ed5e" stroke-width="0.3" x1="184.98032266829074" x2="189.97916517819016" y1="98.17113171792111" y2="98.06355123074" /><path d="M 185.9800911702706 98.14961562048488 a86.0,86.0 0 0,1 -9.607161424134198,41.387399972396054" fill="none" id="id4" stroke="none" /><text fill="#e1ed5e" style="font-size:6.75px; font-family:Arial;" text-anchor="middle"><textPath startOffset="21.466115282336823" xlink:href="#id4">April</textPath></text><path d="M 120.9764740272857 100.99374915477107 l 21.819784387714833 1.0337005287148464 a42.84425616745577,42.84425616745577 0 0,0 -0.041239940983512365,0.736366849685965 l -21.79875809584379 -1.4091390947362348" fill="red" stroke="none" /><path d="M 120.8583938346157 102.4346265915055 l 39.66265429184787 4.629491301883936 a60.93192125591827,60.93192125591827 0 0,0 -0.1305640235812484,1.0407237310312563 l -39.57708875901977 -5.311532787202587" fill="red" stroke="none" /><path d="M 120.81339534386255 102.79330883721812 l 17.475714386070287 2.345367808799367 a38.6323947171692,38.6323947171692 0 0,0 -0.09412681605739043,0.6583227322751958 l -17.432753518996293 -2.645836013054972" fill="red" stroke="none" /><path d="M 120.41448212921028 104.9243191809786 l 17.615227448680315 4.249091495626042 a39.12045850984301,39.12045850984301 0 0,0 -0.16353969698827237,0.6532597956862466 l -17.53947643739698 -4.551679130709685" fill="red" stroke="none" /><path d="M 119.41010516605496 108.01547362559984 l 19.832197161442714 8.189778052477651 a42.45666583603289,42.45666583603289 0 0,0 -0.28476093927863105,0.6730907434330686 l -19.688285240971773 -8.529943321576882" fill="red" stroke="none" /><path d="M 118.97047184881838 109.00673069616215 l 31.62344093691886 15.014060718925078 a56.00662845751308,56.00662845751308 0 0,0 -0.420974471905148,0.8673321006444163 l -31.360313208399 -15.55618177553477" fill="red" stroke="none" /><path d="M 118.81262510543309 109.33194174019688 l 25.75106002470745 12.773729904896786 a49.745178170944435,49.745178170944435 0 0,0 -0.3871153899245139,0.7638153899676239 l -25.52736596499667 -13.215099506567105" fill="red" stroke="none" /><path d="M 118.64920377521936 109.65438752849418 l 22.829203066443867 11.818304739798169 a46.70690256665836,46.70690256665836 0 0,0 -0.37576257320101114,0.7108011786732812 l -22.622387985017962 -12.209520933557584" fill="red" stroke="none" /><line stroke="#e1ed5e" stroke-width="0.3" x1="174.80103733775053" x2="179.2010983576182" y1="140.37084112569926" y2="142.7455964860345" /><path d="M 175.68104954172406 140.8457921977663 a86.0,86.0 0 0,1 -30.038265399797805,32.042727171017184" fill="none" id="id5" stroke="none" /><text fill="#e1ed5e" style="font-size:6.75px; font-family:Arial;" text-anchor="middle"><textPath startOffset="22.206326154141568" xlink:href="#id5">May</textPath></text><path d="M 118.48025628344425 109.97397251340804 l 25.865604653816128 13.959916242663704 a50.39232494393222,50.39232494393222 0 0,0 -0.4185528691812817,0.7597950344631723 l -25.621475375183334 -14.403081795524681" fill="red" stroke="none" /><path d="M 118.12598468904814 110.60418214915192 l 21.26938786487625 12.443156440289012 a45.64181410416147,45.64181410416147 0 0,0 -0.402558897138909,0.6747118667493127 l -21.052048092039115 -12.80743040092443" fill="red" stroke="none" /><path d="M 117.94076556474637 110.91462005526583 l 18.431644223856544 11.213255809581344 a42.57458260652878,42.57458260652878 0 0,0 -0.3862839732343353,0.6228127603484693 l -18.235895610954245 -11.528864901295087" fill="red" stroke="none" /><path d="M 117.75023020441432 111.22182372390056 l 14.878700314380493 9.406421789797326 a38.60274109145278,38.60274109145278 0 0,0 -0.3599156650486357,0.5585971048341455 l -14.714579785954808 -9.661140494552924" fill="red" stroke="none" /><path d="M 117.55443506779139 111.5257021239791 l 14.880223429421962 9.769897015965336 a38.80089708447545,38.80089708447545 0 0,0 -0.37137427720275107,0.5551541556944954 l -14.70984604680849 -10.024588085865638" fill="red" stroke="none" /><path d="M 117.35343817320211 111.8261652097733 l 14.87849396326872 10.139519669015694 a39.00498380264142,39.00498380264142 0 0,0 -0.3828786655824797,0.5515652742118162 l -14.701754390524105 -10.39412620541453" fill="red" stroke="none" /><path d="M 117.14729908036423 112.12312394758627 l 33.899208990140465 23.966708132081763 a62.515773735360085,62.515773735360085 0 0,0 -0.6287902241991712,0.8733346258654979 l -33.48163897356569 -24.54667636339839" fill="red" stroke="none" /><path d="M 116.93607887273984 112.41649034213515 l 22.596068883254127 16.56604655465666 a49.018141041614754,49.018141041614754 0 0,0 -0.504743844180957,0.6761868633405546 l -22.307563772378078 -16.952546297506526" fill="red" stroke="none" /><path d="M 116.498646956653 112.99209946851258 l 32.92685363973079 25.92872971925942 a62.91034139048093,62.91034139048093 0 0,0 -0.6772810159477082,0.8450122041116583 l -32.475654711728225 -26.491669756949328" fill="red" stroke="none" /><path d="M 116.27256486870786 113.27417163493432 l 13.64332712615361 11.129398924221283 a38.60692748567156,38.60692748567156 0 0,0 -0.4244997137267366,0.5113372513125958 l -13.449731412533328 -11.362597432647648" fill="red" stroke="none" /><path d="M 115.80600337817218 113.82643327865902 l 27.10298291698938 23.708560348145646 a57.00926987291303,57.00926987291303 0 0,0 -0.6524606429506785,0.7330464490428737 l -26.69086342439036 -24.171580966929383" fill="red" stroke="none" /><path d="M 115.56566222782051 114.09645910891815 l 16.041980025372556 14.527818485587765 a42.6426115125841,42.6426115125841 0 0,0 -0.49740289821192635,0.5398326077435541 l -15.789530719164908 -14.801802348132654" fill="red" stroke="none" /><path d="M 115.32070863581623 114.36230785411682 l 15.368303494440669 14.406925373324729 a42.06523797657613,42.06523797657613 0 0,0 -0.49976196618288227,0.5239984235207416 l -15.118034976878821 -14.669330913427977" fill="red" stroke="none" /><path d="M 115.07121518719521 114.62390073753431 l 12.602284994306556 12.228248521024206 a38.55983055071019,38.55983055071019 0 0,0 -0.4663157364106106,0.47237537903166565 l -12.389928632840409 -12.443364394036537" fill="red" stroke="none" /><path d="M 114.0293411484842 115.62618273729858 l 42.088023445452606 46.878548211895726 a84.0,84.0 0 0,0 -1.0842305883736492,0.9567074329108447 l -41.27485050417237 -47.59607878657886" fill="red" stroke="none" /><path d="M 113.75828350139079 115.86535959552629 l 14.923720623636687 17.209282987462302 a43.7788686768004,43.7788686768004 0 0,0 -0.5735751509232149,0.48881318706391935 l -14.625279996136424 -17.46362056474917" fill="red" stroke="none" /><path d="M 113.20401910651253 116.32954008644616 l 24.05458824220069 29.74854548417265 a59.257014702217795,59.257014702217795 0 0,0 -0.7986787626381197,0.6345187125632581 l -23.53895198684522 -30.158198110741033" fill="red" stroke="none" /><path d="M 112.63410532772338 116.77436683061366 l 21.080769250123893 27.989046101835793 a56.03977074507849,56.03977074507849 0 0,0 -0.7755237920389457,0.5737139611950484 l -20.595860487666386 -28.34777001177061" fill="red" stroke="none" /><path d="M 112.04921762599082 117.19931262002967 l 21.803288989009456 31.122484057215914 a58.999900323947166,58.999900323947166 0 0,0 -0.8367959104487516,0.5755558575191402 l -21.264336193937822 -31.49318070410015" fill="red" stroke="none" /><line stroke="#e1ed5e" stroke-width="0.3" x1="143.8653032363475" x2="146.44561519142675" y1="172.8068346515853" y2="177.08958963109032" /><path d="M 144.38136562736335 173.6633856474863 a86.0,86.0 0 0,1 -40.68145358897372,12.25698825130547" fill="none" id="id6" stroke="none" /><text fill="#e1ed5e" style="font-size:6.75px; font-family:Arial;" text-anchor="middle"><textPath startOffset="21.466115282336833" xlink:href="#id6">June</textPath></text><path d="M 110.21172684928248 118.3499491758327 l 3.938627166040229 7.077510923088425 a29.099626214801894,29.099626214801894 0 0,0 -0.4397884544631992,0.23980773079847204 l -3.8162158997083813 -7.144259305646668" fill="red" stroke="none" /><path d="M 109.89434966115114 118.52300852407294 l 16.467570741796276 30.828600531343902 a55.95115873411413,55.95115873411413 0 0,0 -0.8534126265105181,0.4464651514186614 l -15.934467212759264 -31.107495101707283" fill="red" stroke="none" /><path d="M 109.57404056367764 118.69057910512821 l 10.893045770000063 21.265559959332514 a44.89314727136805,44.89314727136805 0 0,0 -0.6908116720269014,0.3463873133693542 l -10.5253801902904 -21.44991511361117" fill="red" stroke="none" /><path d="M 108.2653958097858 119.30500536409082 l 6.857552911908339 16.016788402582 a38.42307500622975,38.42307500622975 0 0,0 -0.6102472442117804,0.25508339757304116 l -6.580834208199097 -16.132456843175017" fill="red" stroke="none" /><path d="M 107.59598834532513 119.57807347666477 l 6.321346294056267 16.29278200415392 a38.47610266633441,38.47610266633441 0 0,0 -0.6195198143129836,0.23424938356989428 l -6.0399562589830085 -16.399179637830446" fill="red" stroke="none" /><path d="M 107.2578585660854 119.70592522655815 l 6.082277188573441 16.514085855199365 a38.59855469723399,38.59855469723399 0 0,0 -0.625444435782476,0.22426212242443413 l -5.7971131921612296 -16.61633551866376" fill="red" stroke="none" /><path d="M 106.57524785965236 119.94407469862006 l 6.190640372089677 18.77748134346031 a40.771642162970345,40.771642162970345 0 0,0 -0.6684193391571873,0.21400676441110975 l -5.866499687841549 -18.881260954531125" fill="red" stroke="none" /><path d="M 105.18746579009965 120.34920634021253 l 6.7399567978020425 26.439262860171468 a48.284824320956886,48.284824320956886 0 0,0 -0.8071537606963346,0.19837875642572778 l -6.283849752362497 -26.551362874911227" fill="red" stroke="none" /><path d="M 102.70371172650421 120.8252237178851 l 2.3111019715183567 17.801163903647467 a38.95056067779716,38.95056067779716 0 0,0 -0.6656327659064114,0.08059885810022915 l -2.004341782560565 -17.838308290473048" fill="red" stroke="none" /><path d="M 102.34483914955558 120.86867818915974 l 2.037842267129347 18.136457027788065 a39.25058559681037,39.25058559681037 0 0,0 -0.6720586259406969,0.0696616244606874 l -1.7253510445830476 -18.168848020704512" fill="red" stroke="none" /><path d="M 100.90346689309514 120.98055641714683 l 0.7722281770352716 17.93289489523418 a38.94951407924246,38.94951407924246 0 0,0 -0.6700793689996141,0.023078888328272006 l -0.4634284563610052 -17.943530581988547" fill="red" stroke="none" /><line stroke="#e1ed5e" stroke-width="0.3" x1="102.19456741930631" x2="102.32365962044197" y1="184.97166512339345" y2="189.96999836594603" /><path d="M 102.22038585953345 185.97133177190398 a86.0,86.0 0 0,1 -42.740103519485714,-10.115201625700543" fill="none" id="id7" stroke="none" /><text fill="#e1ed5e" style="font-size:6.75px; font-family:Arial;" text-anchor="middle"><textPath startOffset="22.20632615414155" xlink:href="#id7">July</textPath></text><path d="M 99.81925306533755 120.99922214144158 l -0.1518880794578499 17.64639343471518 a38.647047096934955,38.647047096934955 0 0,0 -0.6651714613070875,-0.01145152993590783 l 0.4556192306576053 -17.64116442750011" fill="red" stroke="none" /><path d="M 95.16358092515715 120.4354850818985 l -5.393617617645995 22.789834928945037 a44.41938699227511,44.41938699227511 0 0,0 -0.7425371379694446,-0.1824975626740782 l 5.78510804035865 -22.69361610795693" fill="red" stroke="none" /><line stroke="#e1ed5e" stroke-width="0.3" x1="58.666819895761336" x2="56.23545636021788" y1="174.27360380694188" y2="178.64263932499728" /><path d="M 58.180547188652646 175.14741091055294 a86.0,86.0 0 0,1 -31.652253787137756,-30.449443065178592" fill="none" id="id8" stroke="none" /><text fill="#e1ed5e" style="font-size:6.75px; font-family:Arial;" text-anchor="middle"><textPath startOffset="22.20632615414155" xlink:href="#id8">August</textPath></text><line stroke="#e1ed5e" stroke-width="0.3" x1="26.63291911575756" x2="22.317208475507996" y1="142.92168965132927" y2="145.44649492493687" /><path d="M 25.769776987707644 143.4266507060508 a86.0,86.0 0 0,1 -11.730757126820373,-40.83630448921669" fill="none" id="id9" stroke="none" /><text fill="#e1ed5e" style="font-size:6.75px; font-family:Arial;" text-anchor="middle"><textPath startOffset="21.46611528233685" xlink:href="#id9">September</textPath></text><line stroke="#e1ed5e" stroke-width="0.3" x1="15.007084014347285" x2="10.007500721073583" y1="101.09737516637583" y2="101.16192664675087" /><path d="M 14.007167355692545 101.11028546245083 a86.0,86.0 0 0,1 10.666146001902534,-42.60595125391555" fill="none" id="id10" stroke="none" /><text fill="#e1ed5e" style="font-size:6.75px; font-family:Arial;" text-anchor="middle"><textPath startOffset="22.20632615414155" xlink:href="#id10">October</textPath></text><line stroke="#e1ed5e" stroke-width="0.3" x1="26.266209847984243" x2="21.928928074336255" y1="57.711370442889674" y2="55.22380399835377" /><path d="M 25.398753493254645 57.213857153982495 a86.0,86.0 0 0,1 29.58750427330803,-30.492523968695096" fill="none" id="id11" stroke="none" /><text fill="#e1ed5e" style="font-size:6.75px; font-family:Arial;" text-anchor="middle"><textPath startOffset="21.46611528233685" xlink:href="#id11">November</textPath></text><path d="M 83.6137871275137 86.86637796730984 l -6.0977019410863535 -4.887335053281163 a28.814602541739347,28.814602541739347 0 0,0 0.3135323871908025,-0.3843536342091611 l 6.012671061819159 4.991572857098406" fill="red" stroke="none" /><path d="M 84.31358615837235 86.03803664274999 l -24.244297894440223 -21.579055751171285 a53.456765512085724,53.456765512085724 0 0,0 0.6176963858859279,-0.6820757771689664 l 23.86925786793825 21.99318431560981" fill="red" stroke="none" /><path d="M 84.5562425177563 85.77008943001954 l -5.69567931067049 -5.2480108755472425 a28.74482930475953,28.74482930475953 0 0,0 0.3384124346913246,-0.36099479020405445 l 5.60449955400871 5.345275082629347" fill="red" stroke="none" /><path d="M 84.80347519578584 85.50635884689758 l -5.856954488873966 -5.586053239504541 a29.093695489658607,29.093695489658607 0 0,0 0.3487582312231654,-0.3594260139894914 l 5.759931993947682 5.686043449044156" fill="red" stroke="none" /><path d="M 85.05521093208273 85.24692304244772 l -5.759931993947682 -5.686043449044156 a29.093695489658607,29.093695489658607 0 0,0 0.3548934869182974,-0.35336946150069154 l 5.661202706862071 5.784348761194957" fill="red" stroke="none" /><path d="M 85.31137513191541 84.99185889309783 l -5.221971462364152 -5.335563081447073 a28.465736356840267,28.465736356840267 0 0,0 0.3531333954222771,-0.33971404660900445 l 5.1293548233294475 5.424660214818391" fill="red" stroke="none" /><path d="M 85.83668400450813 84.49514656593479 l -14.283314187330081 -15.63621775421429 a42.17792175429853,42.17792175429853 0 0,0 0.5402570246639598,-0.4850480910340426 l 14.01204617507015 15.87976485401761" fill="red" stroke="none" /><path d="M 86.10567301691215 84.25364557470407 l -30.840350901858123 -34.95117802339423 a67.6123598305507,67.6123598305507 0 0,0 0.8793026075166278,-0.7625225564466381 l 30.23415449569472 35.47686557326055" fill="red" stroke="none" /><path d="M 87.80319425747018 82.90503203632743 l -10.759813528458531 -15.08088850859547 a39.525841016695736,39.525841016695736 0 0,0 0.5572557479433583,-0.3903932633031121 l 10.498626640931512 15.263866614662524" fill="red" stroke="none" /><line stroke="#e1ed5e" stroke-width="0.3" x1="56.762969772571076" x2="54.21961505331055" y1="26.818313649435495" y2="22.513508569990535" /><path d="M 56.25429882871897 25.957352633546506 a86.0,86.0 0 0,1 42.265352541879196,-11.944610805530505" fill="none" id="id12" stroke="none" /><text fill="#e1ed5e" style="font-size:6.75px; font-family:Arial;" text-anchor="middle"><textPath startOffset="22.20632615414155" xlink:href="#id12">December</textPath></text><path d="M 89.94658935756843 81.56283822128135 l -10.513701359775894 -19.2812986316491 a42.96147520558186,42.96147520558186 0 0,0 0.6523085322738652,-0.34844062706562945 l 10.180247780973723 19.45941798521648" fill="red" stroke="none" /><path d="M 92.23578459929587 80.48803036053334 l -12.967058770057122 -32.5870476251327 a56.07221530027412,56.07221530027412 0 0,0 0.8998705015216717,-0.34913577426336634 l 12.404205103535775 32.805426103286614" fill="red" stroke="none" /><path d="M 93.94186890950719 79.89281104454417 l -10.069611232297818 -33.42145832293672 a55.905457263892345,55.905457263892345 0 0,0 0.9237971692007552,-0.26968172587602673 l 9.49282384537364 33.589838377731446" fill="red" stroke="none" /></svg>