<?xml version="1.0" encoding="utf-8" ?>
<svg baseProfile="full" height="200mm" version="1.1" viewBox="0,0,200,200" width="200mm" xmlns="http://www.w3.org/2000/svg" xmlns:ev="http://www.w3.org/2001/xml-events" xmlns:xlink="http://www.w3.org/1999/xlink"><defs /><rect fill="#1a1a1a" height="200" width="200" x="0" y="0" /><text alignment-baseline="middle" fill="#e1ed5e" style="dominant-baseline: central; font-size:9.0px; font-family:Arial;" text-anchor="middle" x="100.0" y="100.0">2024</text><line stroke="#e1ed5e" stroke-width="0.3" x1="100.0" x2="100.0" y1="15.0" y2="10.0" /><path d="M 100.0 14.0 a86.0,86.0 0 0,1 42.35913384403234,11.155469271406648" fill="none" id="id25" stroke="none" /><text fill="#e1ed5e" style="font-size:6.75px; font-family:Arial;" text-anchor="middle"><textPath startOffset="22.145653131862478" xlink:href="#id25">January</textPath></text><path d="M 109.06512990194946 81.05736502329252 l 1.8371712940840266 -3.8389814144897256 a25.255934288097492,25.255934288097492 0 0,0 0.3894702602148145,0.19050942087469203 l -1.9028018035609082 3.8068782435178123" fill="#ff2803" stroke="none" /><path d="M 109.3889696526874 81.21577127319529 l 3.4243131864222205 -6.850920229309437 a28.65904881738368,28.65904881738368 0 0,0 0.4381733536592167,0.2237344364871489 l -3.5414137617950163 6.791127841149454" fill="#ff5808" stroke="none" /><line stroke="#e1ed5e" stroke-width="0.3" x1="143.13028292997686" x2="145.6673583964461" y1="26.7553504044142" y2="22.446841604673864" /><path d="M 143.63769802327073 25.89364864446614 a86.0,86.0 0 0,1 29.32050498858742,28.57503671076993" fill="none" id="id26" stroke="none" /><text fill="#e1ed5e" style="font-size:6.75px; font-family:Arial;" text-anchor="middle"><textPath startOffset="20.669276256404974" xlink:href="#id26">February</textPath></text><line stroke="#e1ed5e" stroke-width="0.3" x1="172.87174338648825" x2="177.1583165268699" y1="56.24261187166439" y2="53.66864786411523" /><path d="M 173.72905801456457 55.72781907015455 a86.0,86.0 0 0,1 12.242430191666344,42.057860355516425" fill="none" id="id27" stroke="none" /><text fill="#e1ed5e" style="font-size:6.75px; font-family:Arial;" text-anchor="middle"><textPath startOffset="22.145653131862474" xlink:href="#id27">March</textPath></text><path d="M 118.18653347947321 89.5 l 7.734669721293496 -4.465613645681649 a29.931227291363296,29.931227291363296 0 0,0 0.2530851100432255,0.44717713929951175 l -7.810188196358098 4.3321797362830194" fill="#ff6a09" stroke="none" /><path d="M 118.36410011445183 89.81374322990088 l 12.988421507298423 -7.204458464452714 a35.85272079510271,35.85272079510271 0 0,0 0.29391488637236624,0.5407702866015887 l -13.11018174328613 6.980433344376522" fill="#ffb911" stroke="none" /><path d="M 119.31412917781788 91.75594674310238 l 8.251914111069025 -3.5222514448711957 a29.972198266721335,29.972198266721335 0 0,0 0.19792234676298395,0.47494158113073054 l -8.311162302368492 3.3800773542991873" fill="#ff6b09" stroke="none" /><path d="M 119.4528033332814 92.08871423366111 l 11.300463559647298 -4.595800151822555 a33.199256358418275,33.199256358418275 0 0,0 0.21016919668702114,0.5297636683320018 l -11.377691431300445 4.401135466276989" fill="#ff960d" stroke="none" /><path d="M 120.77682067341334 96.94652285012252 l 14.702215610196388 -2.1607193960986075 a35.86014307324728,35.86014307324728 0 0,0 0.08428069989425552,0.6098131600511579 l -14.737140826645858 1.9080179278473637" fill="#ffb911" stroke="none" /><path d="M 120.99303781780057 99.45929381324524 l 31.519087600025493 -0.8118198906757659 a52.5295406670154,52.5295406670154 0 0,0 0.015480126452784728,0.9016397588644783 l -31.528379158076945 0.2706332158422211" fill="#7fff26" stroke="none" /><line stroke="#e1ed5e" stroke-width="0.3" x1="184.99686870605535" x2="189.99668451229388" y1="99.2704041080226" y2="99.22748670261217" /><path d="M 185.99683186730306 99.26182062694052 a86.0,86.0 0 0,1 -10.086455211305974,41.156179273409016" fill="none" id="id28" stroke="none" /><text fill="#e1ed5e" style="font-size:6.75px; font-family:Arial;" text-anchor="middle"><textPath startOffset="21.40746469413373" xlink:href="#id28">April</textPath></text><path d="M 120.96210409425399 101.26102812881392 l 2.98874386482337 0.17979540920204584 a23.99414700352028,23.99414700352028 0 0,0 -0.028262864385247184,0.4109358453154011 l -2.985217039273057 -0.23107467867179043" fill="#ff1602" stroke="none" /><path d="M 120.51834098615036 104.47187691870673 l 30.962873614157623 6.748214192631131 a52.68971342937526,52.68971342937526 0 0,0 -0.200193659014449,0.882090199826697 l -30.84246909358551 -7.2787387263968455" fill="#7dff26" stroke="none" /><path d="M 119.83427380445688 106.89939002012753 l 29.779591958962882 10.358887932613401 a52.52983755814118,52.52983755814118 0 0,0 -0.3035720073178713,0.8491449332370241 l -29.597379781601067 -10.868567822231347" fill="#7fff26" stroke="none" /><line stroke="#e1ed5e" stroke-width="0.3" x1="174.33088141563837" x2="178.70328620479359" y1="141.23008692659167" y2="143.65538615756765" /><path d="M 175.20536237346943 141.71514677278685 a86.0,86.0 0 0,1 -30.301960400862466,31.631185727798858" fill="none" id="id29" stroke="none" /><text fill="#e1ed5e" style="font-size:6.75px; font-family:Arial;" text-anchor="middle"><textPath startOffset="22.145653131862474" xlink:href="#id29">May</textPath></text><path d="M 118.18653347947321 110.5 l 6.506944368707226 3.756786082875035 a28.513572165750073,28.513572165750073 0 0,0 -0.24837533177275484,0.4217956133841822 l -6.441495326804707 -3.8679328645527664" fill="#ff5608" stroke="none" /><path d="M 116.1254893667686 113.45245675266167 l 12.001843378812337 10.012364606956782 a36.62983331683938,36.62983331683938 0 0,0 -0.40694948812604054,0.4793854737525426 l -11.828199327179181 -10.21691686315888" fill="#ffc312" stroke="none" /><line stroke="#e1ed5e" stroke-width="0.3" x1="143.1302829299769" x2="145.66735839644613" y1="173.24464959558577" y2="177.55315839532614" /><path d="M 143.63769802327073 174.10635135553383 a86.0,86.0 0 0,1 -40.68552437913181,11.842963189579606" fill="none" id="id30" stroke="none" /><text fill="#e1ed5e" style="font-size:6.75px; font-family:Arial;" text-anchor="middle"><textPath startOffset="21.407464694133747" xlink:href="#id30">June</textPath></text><path d="M 108.4095320186766 119.2426549942271 l 1.7857459873117552 4.08613628735231 a25.45930470925876,25.45930470925876 0 0,0 -0.4019720215304033,0.17157795325742067 l -1.7153388906109208 -4.116188890269134" fill="#ff2b04" stroke="none" /><path d="M 108.07796709384702 119.3841803445677 l 6.3694233206789335 15.284297262485705 a37.55836031272531,37.55836031272531 0 0,0 -0.5972593748303151,0.24290018821212817 l -6.106109484658178 -15.391384707277124" fill="#ffcf13" stroke="none" /><path d="M 106.0420521117495 120.11202640906438 l 4.285122137982467 14.263777936899539 a35.893543324897855,35.893543324897855 0 0,0 -0.5916281258124002,0.17221432494329586 l -4.039633999788459 -14.335235956145352" fill="#ffba11" stroke="none" /><path d="M 103.2317021107853 120.74984581791261 l 2.2866075437140734 14.681660732218084 a35.85865861761837,35.85865861761837 0 0,0 -0.6090420607375757,0.08950820941320646 l -2.0342403773688122 -14.718750014930173" fill="#ffb911" stroke="none" /><line stroke="#e1ed5e" stroke-width="0.3" x1="101.45913802915013" x2="101.54496967792366" y1="184.9874750549273" y2="189.98673829345242" /><path d="M 101.47630435890484 185.9873277026323 a86.0,86.0 0 0,1 -42.54439059252881,-10.42667462771756" fill="none" id="id31" stroke="none" /><text fill="#e1ed5e" style="font-size:6.75px; font-family:Arial;" text-anchor="middle"><textPath startOffset="22.145653131862474" xlink:href="#id31">July</textPath></text><path d="M 96.05791012581884 120.62667999033965 l -2.7928129264986588 14.613177361852392 a35.877659649668466,35.877659649668466 0 0,0 -0.6039466084324732,-0.12080623619774129 l 3.04325602046209 -14.563081728991788" fill="#ffb911" stroke="none" /><path d="M 93.61358852112213 120.00534299687104 l -2.260384988247459 7.080623781356174 a28.43266933397424,28.43266933397424 0 0,0 -0.4636925121364977,-0.15242493884284844 l 2.3816002380317003 -7.040777921111304" fill="#ff5507" stroke="none" /><path d="M 90.93487009805054 118.94263497670748 l -3.209314611845496 6.706233211785452 a28.43459912629183,28.43459912629183 0 0,0 -0.4384882615900631,-0.21448658167070098 l 3.3239631226976285 -6.65015288001753" fill="#ff5507" stroke="none" /><line stroke="#e1ed5e" stroke-width="0.3" x1="58.13341422392154" x2="55.67067388415222" y1="173.97424548756322" y2="178.32567169271397" /><path d="M 57.64086615596768 174.84453072859336 a86.0,86.0 0 0,1 -31.369924170532247,-30.572349798747897" fill="none" id="id32" stroke="none" /><text fill="#e1ed5e" style="font-size:6.75px; font-family:Arial;" text-anchor="middle"><textPath startOffset="22.145653131862474" xlink:href="#id32">August</textPath></text><path d="M 83.4222238831116 112.89097897827486 l -1.4062270326626962 1.0934906460866805 a22.781346754697243,22.781346754697243 0 0,0 -0.23741203287960183,-0.3107799720680347 l 1.4247910428965933 -1.0691897607777754" fill="#ff0400" stroke="none" /><path d="M 81.99639281039703 110.81064883170644 l -6.377226727772079 3.8293414174205123 a28.438607156489898,28.438607156489898 0 0,0 -0.247722328391127,-0.4206866708820012 l 6.442022766292976 -3.719303578244952" fill="#ff5507" stroke="none" /><line stroke="#e1ed5e" stroke-width="0.3" x1="26.387840678322732" x2="22.057713659400548" y1="142.50000000000003" y2="145.00000000000006" /><path d="M 25.521815274538298 143.00000000000003 a86.0,86.0 0 0,1 -11.493303480769221,-40.785679425670985" fill="none" id="id33" stroke="none" /><text fill="#e1ed5e" style="font-size:6.75px; font-family:Arial;" text-anchor="middle"><textPath startOffset="21.40746469413373" xlink:href="#id33">September</textPath></text><path d="M 81.81346652052679 110.50000000000001 l -12.858976795020054 7.424133714107987 a35.84826742821596,35.84826742821596 0 0,0 -0.30311696271628746,-0.5355786290132826 l 12.984527122757719 -7.202298314995583" fill="#ffb911" stroke="none" /><path d="M 80.83023694016515 108.57439118712176 l -4.880995189057804 2.1832070643131645 a26.347009175349555,26.347009175349555 0 0,0 -0.18112454452897814,-0.41444840374198466 l 4.91775361560375 -2.0990965907953303" fill="#ff3805" stroke="none" /><path d="M 80.68587082218212 108.24405325689762 l -1.3652841797900468 0.5827586315367379 a22.484455628914368,22.484455628914368 0 0,0 -0.14847680454269352,-0.35629027981965194 l 1.375086828869226 -0.5592358422758047" fill="#ff0000" stroke="none" /><path d="M 80.05021161711548 106.5578916946017 l -14.224021711586275 4.675718461568892 a35.97281325548188,35.97281325548188 0 0,0 -0.18780426693126145,-0.5882941912937741 l 14.302190694294792 -4.430855236583726" fill="#ffbb11" stroke="none" /><path d="M 79.83685265289637 105.86919833188381 l -7.482824394009449 2.1781411252449336 a28.79339205180043,28.79339205180043 0 0,0 -0.13406958538633293,-0.4757656612347245 l 7.519112471470357 -2.0493675401072133" fill="#ff5a08" stroke="none" /><path d="M 79.34024301695615 103.76489593502545 l -11.744718280953508 2.140278907940297 a32.93814061329224,32.93814061329224 0 0,0 -0.09659530481600245,-0.5571360489753613 l 11.779728403261746 -1.938349826044343" fill="#ff930d" stroke="none" /><path d="M 79.2786578344484 103.40968896794605 l -14.671746129900304 2.4142302424209046 a35.869049807020765,35.869049807020765 0 0,0 -0.09476006484341311,-0.6084275925785828 l 14.711027686881986 -2.162014467910872" fill="#ffb911" stroke="none" /><path d="M 79.03789590574601 101.26102812881392 l -14.918529118017704 0.8974616657641081 a35.94549927190986,35.94549927190986 0 0,0 -0.031766253936979585,-0.6162568399544636 l 14.931736961411255 -0.6412330324329136" fill="#ffba11" stroke="none" /><line stroke="#e1ed5e" stroke-width="0.3" x1="15.003131293944662" x2="10.003315487706104" y1="100.72959589197737" y2="100.7725132973878" /><path d="M 14.003168132696942 100.73817937305945 a86.0,86.0 0 0,1 10.791469493833604,-42.45332614584628" fill="none" id="id34" stroke="none" /><text fill="#e1ed5e" style="font-size:6.75px; font-family:Arial;" text-anchor="middle"><textPath startOffset="22.145653131862435" xlink:href="#id34">October</textPath></text><path d="M 79.00077361379809 100.18025310272382 l -14.858853443645899 0.12754538604791626 a35.85940084543282,35.85940084543282 0 0,0 0.0,-0.6155969775434621 l 14.858853443645899 0.1275453860479108" fill="#ffb911" stroke="none" /><path d="M 79.01933749520258 99.09900007780938 l -8.11694441694515 -0.3485765183259071 a29.124425657048334,29.124425657048334 0 0,0 0.025738240389766624,-0.4993149875352566 l 8.109764587098814 0.48786329923787564" fill="#ff5f08" stroke="none" /><path d="M 79.407916724674 95.88100663000787 l -7.304304488399041 -1.4610654666577494 a28.4489983458923,28.4489983458923 0 0,0 0.09989972679904287,-0.4780563568416191 l 7.278147050775632 1.5862382747847776" fill="#ff5607" stroke="none" /><path d="M 79.94057633289273 93.78553927170692 l -14.307437175256176 -4.432480609796698 a35.978305741308866,35.978305741308866 0 0,0 0.18783294170481607,-0.588384014613536 l 14.229239517774104 4.677433658101625" fill="#ffbb11" stroke="none" /><path d="M 80.9802524753101 91.09779779509293 l -16.224853263572356 -7.59405056821975 a38.914113638612804,38.914113638612804 0 0,0 0.2883734876320717,-0.6025896784997792 l 16.09210051798038 7.871452748784616" fill="#ffe015" stroke="none" /><line stroke="#e1ed5e" stroke-width="0.3" x1="26.387840678322718" x2="22.05771365940052" y1="57.49999999999999" y2="54.99999999999999" /><path d="M 25.521815274538284 56.99999999999999 a86.0,86.0 0 0,1 29.574782752854787,-30.34633250058573" fill="none" id="id35" stroke="none" /><text fill="#e1ed5e" style="font-size:6.75px; font-family:Arial;" text-anchor="middle"><textPath startOffset="21.40746469413373" xlink:href="#id35">November</textPath></text><path d="M 81.99639281039701 89.18935116829357 l -6.4813291317496855 -3.8918519199040404 a28.560035626935093,28.560035626935093 0 0,0 0.25599588768021375,-0.4181500436877742 l 6.413565279614079 4.002539079716358" fill="#ff5708" stroke="none" /><path d="M 82.18462484594161 88.88188828441811 l -13.014016572324042 -8.121708853634315 a36.34036446920108,36.34036446920108 0 0,0 0.33481988593607215,-0.5263924727963823 l 12.87267899476208 8.34391500110937" fill="#ffbf11" stroke="none" /><path d="M 82.98947788004972 87.6856937992154 l -7.919910363129838 -5.73340433683484 a30.777366999844485,30.777366999844485 0 0,0 0.3134865068473504,-0.4253046533653125 l 7.820321836698668 5.868515299469016" fill="#ff760a" stroke="none" /><path d="M 83.64595745247003 86.82634096563983 l -24.7522143690833 -19.938631778412653 a52.78397636181132,52.78397636181132 0 0,0 0.5744736043202356,-0.700764389169223 l 24.406293945524435 20.360598449280367" fill="#7cff26" stroke="none" /><path d="M 85.08716467003674 85.21462403516908 l -10.56324957402462 -10.472965932138335 a35.87498762953642,35.87498762953642 0 0,0 0.43734698563802216,-0.43360899967501915 l 10.381910668256623 10.652754942042028" fill="#ffb911" stroke="none" /><path d="M 86.40962598614128 83.9905735841838 l -11.536821676758326 -13.590346926295837 a38.82682764763264,38.82682764763264 0 0,0 0.5118220198065098,-0.42698013250352607 l 11.301825322789908 13.786389242711245" fill="#ffdf14" stroke="none" /><path d="M 87.25179093698888 83.31218511350988 l -20.36698202069901 -26.661033254001076 a54.55033011465652,54.55033011465652 0 0,0 0.7490202210710944,-0.562078737775202 l 19.90630881071716 27.00673101904028" fill="#6aff28" stroke="none" /><line stroke="#e1ed5e" stroke-width="0.3" x1="56.869717070023135" x2="54.33264160355391" y1="26.7553504044142" y2="22.446841604673864" /><path d="M 56.362301976729285 25.89364864446614 a86.0,86.0 0 0,1 42.16139366436587,-11.88097634709845" fill="none" id="id36" stroke="none" /><text fill="#e1ed5e" style="font-size:6.75px; font-family:Arial;" text-anchor="middle"><textPath startOffset="22.145653131862474" xlink:href="#id36">December</textPath></text><path d="M 89.34428304082924 81.90426304109057 l -31.967150877512267 -54.287210876728295 a84.0,84.0 0 0,0 1.2488301285584011,-0.721012410895304 l 31.030528281093464 54.827970184899776" fill="#4dd2ff" stroke="none" /><path d="M 91.5904679813234 80.7573450057729 l -5.949316192082574 -13.613199721645113 a35.85643193417499,35.85643193417499 0 0,0 0.5661302456624421,-0.24164733768799304 l 5.714750871249701 13.713321708992511" fill="#ffb911" stroke="none" /><path d="M 93.61358852112211 79.99465700312896 l -4.516029804260739 -14.146399040702311 a35.84975188384488,35.84975188384488 0 0,0 0.5878665652585909,-0.182122564631135 l 4.272522606130532 14.221838193140089" fill="#ffb911" stroke="none" /><path d="M 96.05791012581881 79.37332000966035 l -2.791168833200093 -14.604574770986527 a35.86890136145787,35.86890136145787 0 0,0 0.6057834980282368,-0.11039393305080493 l 2.5400506016208175 14.650336877968694" fill="#ffb911" stroke="none" /><path d="M 96.41257539226777 79.30868818359171 l -0.3423453847877586 -1.9745572047100501 a23.004015099034397,23.004015099034397 0 0,0 0.3896688424206347,-0.0641198597339308 l 0.308399039314051 1.9801430629396495" fill="#ff0801" stroke="none" /><path d="M 98.5590905019552 79.04949213459386 l -1.0693303242633165 -15.547828229042052 a36.584557420157495,36.584557420157495 0 0,0 0.6269123624941487,-0.037713490966920116 l 0.802273609636684 15.563893697833667" fill="#ffc312" stroke="none" /></svg>