<?xml version="1.0" encoding="utf-8" ?>
<svg baseProfile="full" height="200mm" version="1.1" viewBox="0,0,200,200" width="200mm" xmlns="http://www.w3.org/2000/svg" xmlns:ev="http://www.w3.org/2001/xml-events" xmlns:xlink="http://www.w3.org/1999/xlink"><defs /><rect fill="#1a1a1a" height="200" width="200" x="0" y="0" /><text alignment-baseline="middle" fill="#e1ed5e" style="dominant-baseline: central; font-size:9.0px; font-family:Arial;" text-anchor="middle" x="100.0" y="100.0">2025</text><line stroke="#e1ed5e" stroke-width="0.3" x1="100.0" x2="100.0" y1="15.0" y2="10.0" /><path d="M 100.0 14.0 a86.0,86.0 0 0,1 42.46469731375804,11.215312516191453" fill="none" id="id37" stroke="none" /><text fill="#e1ed5e" style="font-size:6.75px; font-family:Arial;" text-anchor="middle"><textPath startOffset="22.20632615414155" xlink:href="#id37">January</textPath></text><path d="M 101.08401301168833 79.027996857942 l 1.5778637380066953 -30.526352464789387 a51.56710402999063,51.56710402999063 0 0,0 0.8860651507360195,0.053449869631363896 l -2.103090937582327 30.494669325777718" fill="#f0ff19" stroke="none" /><path d="M 103.59715602781102 79.31037775812273 l 8.822303288827259 -50.74289826126396 a72.50412371134021,72.50412371134021 0 0,0 1.22775333961483,0.22436407521275947 l -9.694451749544989 50.58351870470046" fill="#3bff98" stroke="none" /><path d="M 106.74666289553966 80.11325718540242 l 9.500275102080012 -28.003404134493646 a50.571030927835054,50.571030927835054 0 0,0 0.8219429966068033,0.28675977224230986 l -9.98090010275009 27.83572350907913" fill="#fffe18" stroke="none" /><path d="M 107.4271985657038 80.35727306442388 l 10.616647846683634 -28.077869842681054 a51.01799437675726,51.01799437675726 0 0,0 0.8187582377580722,0.31766547607771745 l -11.098389249441373 27.890961662712787" fill="#f9ff18" stroke="none" /><path d="M 108.09893153111575 80.62456947434976 l 11.419721170162738 -27.319901804911698 a50.61059044048734,50.61059044048734 0 0,0 0.8008914871998165,0.3428999379978288 l -11.888296415152869 27.119282338951077" fill="#ffff18" stroke="none" /><path d="M 109.73455568895987 81.39251694778311 l 17.23071096715469 -32.93629134636311 a58.171180880974696,58.171180880974696 0 0,0 0.8832461511045896,0.47179950516878205 l -17.79510216478759 32.63481311469258" fill="#8fff24" stroke="none" /><line stroke="#e1ed5e" stroke-width="0.3" x1="143.23703022742887" x2="145.7803849466894" y1="26.81831364943548" y2="22.513508569990506" /><path d="M 143.74570117128098 25.957352633546492 a86.0,86.0 0 0,1 28.547481713284135,27.462654790039103" fill="none" id="id38" stroke="none" /><text fill="#e1ed5e" style="font-size:6.75px; font-family:Arial;" text-anchor="middle"><textPath startOffset="19.985693538727396" xlink:href="#id38">February</textPath></text><path d="M 113.06298171725822 83.55741782278167 l 18.40998946328683 -23.172945594181865 a50.59582942830366,50.59582942830366 0 0,0 0.6772531285288983,0.5476249301389304 l -18.80614599038022 22.852614566778808" fill="#ffff18" stroke="none" /><path d="M 114.94478906791727 85.2469230424477 l 21.02383063423165 -20.754136433763023 a50.54209934395501,50.54209934395501 0 0,0 0.605869171063863,0.6244014381850003 l -21.377964068998622 20.38917080002791" fill="#fffe18" stroke="none" /><path d="M 116.60985879189232 87.15038557335679 l 23.374834784850712 -18.083092579837654 a50.553022492970946,50.553022492970946 0 0,0 0.5265315387430625,0.6928537856526469 l -23.68264226381789 17.678054018303975" fill="#fffe18" stroke="none" /><line stroke="#e1ed5e" stroke-width="0.3" x1="172.23445277983987" x2="176.4835382374775" y1="55.19839476539836" y2="52.563006222186495" /><path d="M 173.08426987136738 54.67131705675599 a86.0,86.0 0 0,1 12.851231095245387,41.99856678651699" fill="none" id="id39" stroke="none" /><text fill="#e1ed5e" style="font-size:6.75px; font-family:Arial;" text-anchor="middle"><textPath startOffset="22.20632615414155" xlink:href="#id39">March</textPath></text><path d="M 118.03404312379186 89.2402003453031 l 53.86888682675673 -32.140237544001835 a83.72839737582007,83.72839737582007 0 0,0 0.727800424431428,1.2440468453271403 l -54.41414692565848 31.2082112863208" fill="#4dd5ff" stroke="none" /><path d="M 119.04729006885535 91.15688171328212 l 26.859892223152027 -12.470288594292466 a50.61354264292409,50.61354264292409 0 0,0 0.360073619101414,0.793374490123064 l -27.070568159216787 12.00609209532734" fill="#ffff18" stroke="none" /><path d="M 120.08093135843002 93.85539295169968 l 60.020341771019545 -18.365752489501784 a83.76736644798501,83.76736644798501 0 0,0 0.4100376802540909,1.3824432171669676 l -60.327585348385334 17.329879885588287" fill="#4dd5ff" stroke="none" /><path d="M 120.67395015179393 96.31383870115 l 62.02185045538181 -11.058483896549978 a84.0,84.0 0 0,0 0.2415525539191079,1.4256568467366484 l -62.20301487082114 9.98924126149749" fill="#4dd2ff" stroke="none" /><path d="M 120.96714384426684 98.82574320788733 l 62.80710886133618 -3.5174878715562428 a83.90552952202437,83.90552952202437 0 0,0 0.06834861235141315,1.4427311811104286 l -62.85835108192109 2.435845583822814" fill="#4dd3ff" stroke="none" /><line stroke="#e1ed5e" stroke-width="0.3" x1="184.98032266829074" x2="189.97916517819016" y1="98.17113171792111" y2="98.06355123074" /><path d="M 185.9800911702706 98.14961562048488 a86.0,86.0 0 0,1 -9.607161424134198,41.387399972396054" fill="none" id="id40" stroke="none" /><text fill="#e1ed5e" style="font-size:6.75px; font-family:Arial;" text-anchor="middle"><textPath startOffset="21.466115282336823" xlink:href="#id40">April</textPath></text><path d="M 120.9904718944345 100.63252640178507 l 36.01439723477106 1.0852570256606724 a57.03074507966261,57.03074507966261 0 0,0 -0.038014704429619725,0.9809906067865786 l -35.990380397490235 -1.705024879461257" fill="#9fff22" stroke="none" /><path d="M 120.95626037817324 101.35467743843564 l 14.83013858261756 0.9586659921285622 a35.86109184629803,35.86109184629803 0 0,0 -0.045122545553974026,0.6156612840546226 l -14.81143947839925 -1.213800412679955" fill="#ff0100" stroke="none" /><path d="M 120.13307415673323 105.97154293290107 l 33.98093087990709 10.078867542513166 a56.44414245548266,56.44414245548266 0 0,0 -0.2842990057447629,0.9291056002042694 l -33.80240510165619 -10.662300115269492" fill="#a8ff21" stroke="none" /><path d="M 119.26925614724726 108.34839909993367 l 32.52323564612916 14.090681504270897 a56.444437675726334,56.444437675726334 0 0,0 -0.3939255027956059,0.8881980155085039 l -32.27586905860228 -14.648427856272088" fill="#a8ff21" stroke="none" /><line stroke="#e1ed5e" stroke-width="0.3" x1="174.80103733775053" x2="179.2010983576182" y1="140.37084112569926" y2="142.7455964860345" /><path d="M 175.68104954172406 140.8457921977663 a86.0,86.0 0 0,1 -30.038265399797805,32.042727171017184" fill="none" id="id41" stroke="none" /><text fill="#e1ed5e" style="font-size:6.75px; font-family:Arial;" text-anchor="middle"><textPath startOffset="22.206326154141568" xlink:href="#id41">May</textPath></text><path d="M 118.48025628344425 109.97397251340804 l 25.99273160016772 14.028527881440608 a50.53678537956888,50.53678537956888 0 0,0 -0.4197527409848981,0.761973150313061 l -25.74740244973131 -14.473871550151474" fill="#fffe18" stroke="none" /><path d="M 118.12598468904814 110.60418214915192 l 25.671796440714775 15.018682307382294 a50.74225866916589,50.74225866916589 0 0,0 -0.44754460551414027,0.7501105015593115 l -25.409470959502407 -15.45835490282771" fill="#fdff18" stroke="none" /><path d="M 116.71984013943494 112.70617746262583 l 23.521383356418745 17.874983767829892 a50.54268978444236,50.54268978444236 0 0,0 -0.5323665914181249,0.6881555831466367 l -23.210209947782552 -18.27721734508978" fill="#fffe18" stroke="none" /><path d="M 116.498646956653 112.99209946851258 l 34.844307389381164 27.43865655793782 a65.35093720712277,65.35093720712277 0 0,0 -0.7035560158551641,0.8777943064621356 l -34.366833461471145 -28.034378697978205" fill="#30ff2f" stroke="none" /><path d="M 116.0416608686014 113.55231037782055 l 16.486978577062477 13.928523530014594 a42.58296157450796,42.58296157450796 0 0,0 -0.4778568504615479,0.5558554739570147 l -16.24477921703015 -14.210256103133137" fill="#ff7b0b" stroke="none" /><path d="M 115.07121518719521 114.62390073753431 l 21.365248446252544 20.731126762506474 a50.77000937207123,50.77000937207123 0 0,0 -0.6139771355264672,0.6219555967455271 l -21.00523068567054 -21.095822853232665" fill="#fdff18" stroke="none" /><path d="M 113.75828350139079 115.86535959552629 l 11.613242028219409 13.391805804041962 a38.72590909090909,38.72590909090909 0 0,0 -0.507373073421327,0.43239434039341124 l -11.381003478221034 -13.58972453465832" fill="#ff3605" stroke="none" /><path d="M 112.34349029814194 116.9893568818739 l 17.376904195725405 23.91725676875612 a50.56335520149953,50.56335520149953 0 0,0 -0.7085435070510128,0.505526979283989 l -16.962633360825507 -24.212828009884326" fill="#fffe18" stroke="none" /><path d="M 111.1453310114006 117.79835938074945 l 17.2522830037299 27.55075939195392 a53.506701030927836,53.506701030927836 0 0,0 -0.7848179457394835,0.482099282715117 l -16.775485858058108 -27.843647141497417" fill="#d3ff1c" stroke="none" /><line stroke="#e1ed5e" stroke-width="0.3" x1="143.8653032363475" x2="146.44561519142675" y1="172.8068346515853" y2="177.08958963109032" /><path d="M 144.38136562736335 173.6633856474863 a86.0,86.0 0 0,1 -40.68145358897372,12.25698825130547" fill="none" id="id42" stroke="none" /><text fill="#e1ed5e" style="font-size:6.75px; font-family:Arial;" text-anchor="middle"><textPath startOffset="21.466115282336833" xlink:href="#id42">June</textPath></text><path d="M 109.57404056367764 118.69057910512821 l 13.479342854898098 26.31456616869004 a50.56601218369259,50.56601218369259 0 0,0 -0.7781052019631516,0.39015810146334506 l -13.024383745252186 -26.54269211106269" fill="#fffe18" stroke="none" /><path d="M 108.59647513512805 119.15986991738527 l 25.62676108206809 57.117062635349825 a83.602633552015,83.602633552015 0 0,0 -1.3180525482493413,0.5777955031586534 l -24.639787859160993 -57.549722691802934" fill="#4cd7ff" stroke="none" /><path d="M 104.13013068566511 120.58985236759428 l 5.814368561291322 28.98624750623137 a50.563650421743205,50.563650421743205 0 0,0 -0.8548444488187589,0.1638329731630509 l -5.314556497900859 -29.082037677742886" fill="#fffe18" stroke="none" /><path d="M 103.06178313531738 120.77559828337769 l 4.310743875380066 29.25036787366836 a50.56630740393627,50.56630740393627 0 0,0 -0.8622070919336794,0.11949404649309357 l -3.806608192259556 -29.320236485654057" fill="#fffe18" stroke="none" /><path d="M 102.34483914955558 120.86867818915974 l 2.640745983189759 23.50219976195295 a44.65009372071228,44.65009372071228 0 0,0 -0.7645103933558571,0.07924462816573917 l -2.235802993228299 -23.54417375857445" fill="#ff9e0e" stroke="none" /><path d="M 101.26447882468166 120.96189622390904 l 1.7891012528900279 29.658823908409776 a50.712736644798504,50.712736644798504 0 0,0 -0.8718049053417726,0.04506235549569073 l -1.2783082791347757 -29.685226070667667" fill="#fdff18" stroke="none" /><line stroke="#e1ed5e" stroke-width="0.3" x1="102.19456741930631" x2="102.32365962044197" y1="184.97166512339345" y2="189.96999836594603" /><path d="M 102.22038585953345 185.97133177190398 a86.0,86.0 0 0,1 -42.740103519485714,-10.115201625700543" fill="none" id="id43" stroke="none" /><text fill="#e1ed5e" style="font-size:6.75px; font-family:Arial;" text-anchor="middle"><textPath startOffset="22.20632615414155" xlink:href="#id43">July</textPath></text><path d="M 98.73552117531835 120.96189622390904 l -1.7776356178114743 29.468752356426346 a50.52231958762887,50.52231958762887 0 0,0 -0.8676299931012886,-0.05983684414388777 l 2.2846283716916926 -29.433787167766173" fill="#fffe18" stroke="none" /><path d="M 96.58105272829116 120.7198165907248 l -5.774736520909129 34.99658580964123 a56.46982661668229,56.46982661668229 0 0,0 -0.957704134777448,-0.1665091397512994 l 6.376289627158627 -34.891998091368926" fill="#a7ff21" stroke="none" /><path d="M 93.76903079525671 120.05430185196036 l -4.560053348554728 14.676478619625387 a36.368575445173384,36.368575445173384 0 0,0 -0.5962344873915689,-0.19089545439824557 l 4.812009181037237 -14.595810318567436" fill="#ff0b01" stroke="none" /><path d="M 91.40352486487194 119.15986991738527 l -6.054593312135643 13.494510068336488 a35.79053420805998,35.79053420805998 0 0,0 -0.5599207588537467,-0.2570321580107645 l 6.285982066756809 -13.38829083999165" fill="#ff0000" stroke="none" /><line stroke="#e1ed5e" stroke-width="0.3" x1="58.666819895761336" x2="56.23545636021788" y1="174.27360380694188" y2="178.64263932499728" /><path d="M 58.180547188652646 175.14741091055294 a86.0,86.0 0 0,1 -31.652253787137756,-30.449443065178592" fill="none" id="id44" stroke="none" /><text fill="#e1ed5e" style="font-size:6.75px; font-family:Arial;" text-anchor="middle"><textPath startOffset="22.20632615414155" xlink:href="#id44">August</textPath></text><path d="M 89.4739219176387 118.17145234162733 l -7.419553257491962 12.808574794880892 a35.80234301780693,35.80234301780693 0 0,0 -0.5306114018859138,-0.31349456901634515 l 7.638932530406257 -12.678961653570797" fill="#ff0000" stroke="none" /><path d="M 87.07902340077011 116.55440617244103 l -27.285542345970725 34.9583444534263 a65.346213683224,65.346213683224 0 0,0 -0.8807502934441429,-0.6997213002633788 l 27.883250132132225 -34.48348923915779" fill="#30ff2f" stroke="none" /><path d="M 85.70375840098266 115.38237550388516 l -11.212567743334262 12.064424498993716 a37.4703373945642,37.4703373945642 0 0,0 -0.46867213842084643,-0.4431587599168319 l 11.418575716145925 -11.869631102330953" fill="#ff1f03" stroke="none" /><path d="M 85.44109423537348 115.13401014063109 l -10.83731106237546 11.265405392873708 a36.63191190253046,36.63191190253046 0 0,0 -0.45065981831354546,-0.44106548353830105 l 11.029620833064799 -11.077189806412836" fill="#ff1001" stroke="none" /><path d="M 83.50135304334701 112.99209946851258 l -11.710637556345961 9.221711839248364 a35.90567010309278,35.90567010309278 0 0,0 -0.3781947357152922,-0.4888676770754334 l 11.867639109279322 -9.018766168059678" fill="#ff0200" stroke="none" /><path d="M 82.05923443525364 110.91462005526583 l -12.871952830774067 7.830907438714341 a36.066860356138704,36.066860356138704 0 0,0 -0.3181082043561032,-0.5331676480505585 l 13.004841910828402 -7.6081776967776715" fill="#ff0500" stroke="none" /><line stroke="#e1ed5e" stroke-width="0.3" x1="26.63291911575756" x2="22.317208475507996" y1="142.92168965132927" y2="145.44649492493687" /><path d="M 25.769776987707644 143.4266507060508 a86.0,86.0 0 0,1 -11.730757126820373,-40.83630448921669" fill="none" id="id45" stroke="none" /><text fill="#e1ed5e" style="font-size:6.75px; font-family:Arial;" text-anchor="middle"><textPath startOffset="21.46611528233685" xlink:href="#id45">September</textPath></text><path d="M 80.87730276802145 108.67885076344099 l -26.909506141853136 12.212899942404123 a50.5512511715089,50.5512511715089 0 0,0 -0.3527969779606172,-0.7954640496190797 l 27.115744204545035 -11.747887556292348" fill="#fffe18" stroke="none" /><path d="M 79.97269907076064 106.31721596034903 l -28.208087349116553 8.89768322962562 a50.578116213683224,50.578116213683224 0 0,0 -0.254752885356252,-0.8325471692475351 l 28.357067006978937 -8.410809087826038" fill="#fffe18" stroke="none" /><path d="M 79.35854240842038 103.8639653848113 l -14.85575568979736 2.7809143562616816 a36.11380037488285,36.11380037488285 0 0,0 -0.10912138640184083,-0.612010685389745 l 14.90142351853839 -2.524784920138723" fill="#ff0601" stroke="none" /><path d="M 79.0095281055655 100.63252640178507 l -30.79550099402642 0.927990925258092 a51.80947985004686,51.80947985004686 0 0,0 -0.019189089837906372,-0.8916416026868117 l 30.806912146549333 -0.3977595067811514" fill="#ecff1a" stroke="none" /><line stroke="#e1ed5e" stroke-width="0.3" x1="15.007084014347285" x2="10.007500721073583" y1="101.09737516637583" y2="101.16192664675087" /><path d="M 14.007167355692545 101.11028546245083 a86.0,86.0 0 0,1 10.666146001902534,-42.60595125391555" fill="none" id="id46" stroke="none" /><text fill="#e1ed5e" style="font-size:6.75px; font-family:Arial;" text-anchor="middle"><textPath startOffset="22.20632615414155" xlink:href="#id46">October</textPath></text><path d="M 79.00175016825051 100.2711162175752 l -36.274525783620525 0.46835390109129105 a57.277549203373944,57.277549203373944 0 0,0 -0.004243182787919684,-0.985966245178205 l 36.277213263697945 0.1561218222905893" fill="#9cff22" stroke="none" /><line stroke="#e1ed5e" stroke-width="0.3" x1="26.266209847984243" x2="21.928928074336255" y1="57.711370442889674" y2="55.22380399835377" /><path d="M 25.398753493254645 57.213857153982495 a86.0,86.0 0 0,1 29.58750427330803,-30.492523968695096" fill="none" id="id47" stroke="none" /><text fill="#e1ed5e" style="font-size:6.75px; font-family:Arial;" text-anchor="middle"><textPath startOffset="21.46611528233685" xlink:href="#id47">November</textPath></text><line stroke="#e1ed5e" stroke-width="0.3" x1="56.762969772571076" x2="54.21961505331055" y1="26.818313649435495" y2="22.513508569990535" /><path d="M 56.25429882871897 25.957352633546506 a86.0,86.0 0 0,1 42.265352541879196,-11.944610805530505" fill="none" id="id48" stroke="none" /><text fill="#e1ed5e" style="font-size:6.75px; font-family:Arial;" text-anchor="middle"><textPath startOffset="22.20632615414155" xlink:href="#id48">December</textPath></text></svg>